<svg xmlns="http://www.w3.org/2000/svg" xmlns:xlink="http://www.w3.org/1999/xlink" width="500" zoomAndPan="magnify" viewBox="0 0 375 374.999991" height="500" preserveAspectRatio="xMidYMid meet" version="1.0"><defs><g/><clipPath id="ccfdbadcba"><path d="M 86.65625 83.445312 L 288.40625 83.445312 L 288.40625 185.445312 L 86.65625 185.445312 Z M 86.65625 83.445312 " clip-rule="nonzero"/></clipPath><clipPath id="248ec5a227"><path d="M 146 146.042969 L 229 146.042969 L 229 224.042969 L 146 224.042969 Z M 146 146.042969 " clip-rule="nonzero"/></clipPath><clipPath id="f56b7fc564"><path d="M 116.210938 201 L 119 201 L 119 205 L 116.210938 205 Z M 116.210938 201 " clip-rule="nonzero"/></clipPath><clipPath id="257e74e09f"><path d="M 256 201 L 258.710938 201 L 258.710938 205 L 256 205 Z M 256 201 " clip-rule="nonzero"/></clipPath></defs><g clip-path="url(#ccfdbadcba)"><path stroke-linecap="round" transform="matrix(0.0748572, 0, 0, 0.0751073, 86.658104, 83.46455)" fill="none" stroke-linejoin="round" d="M 9.994298 1347.555589 C 9.994298 608.872593 608.842475 9.989632 1347.540174 9.989632 C 2086.290056 9.989632 2685.08605 608.872593 2685.08605 1347.555589 " stroke="#2b2a29" stroke-width="20.030001" stroke-opacity="1" stroke-miterlimit="22.926001"/></g><g clip-path="url(#248ec5a227)"><path fill="#000000" d="M 187.667969 224.105469 C 187.167969 224.078125 186.839844 224.066406 186.511719 224.042969 C 185.339844 223.96875 184.167969 223.882812 182.992188 223.820312 C 181.074219 223.710938 179.148438 223.664062 177.238281 223.496094 C 175.558594 223.347656 173.890625 223.085938 172.21875 222.851562 C 171.339844 222.730469 170.460938 222.597656 169.582031 222.40625 C 169.039062 222.265625 168.511719 222.074219 168.003906 221.839844 C 167.625 221.667969 167.410156 221.375 167.363281 220.960938 C 167.257812 220.375 167.414062 219.640625 166.914062 219.253906 C 166.492188 218.925781 165.871094 218.871094 165.34375 218.683594 C 163.878906 218.175781 162.457031 217.570312 161.078125 216.867188 C 158.652344 215.59375 156.730469 213.785156 155.308594 211.4375 C 154.089844 209.417969 153.152344 207.277344 152.496094 205.015625 C 151.585938 201.957031 150.910156 198.84375 150.472656 195.683594 C 150.238281 194.109375 149.933594 192.546875 149.644531 190.992188 C 149.59375 190.816406 149.496094 190.671875 149.351562 190.558594 C 149.199219 190.449219 149.035156 190.359375 148.859375 190.289062 C 148.40625 190.066406 148.03125 189.75 147.738281 189.34375 C 147.445312 188.933594 147.265625 188.480469 147.203125 187.980469 C 147.082031 187.242188 146.996094 186.492188 146.910156 185.75 C 146.878906 185.46875 146.878906 185.183594 146.910156 184.902344 C 147.046875 183.730469 147.496094 182.726562 148.636719 182.183594 C 149.304688 181.851562 149.996094 181.5625 150.707031 181.328125 C 151.742188 181.019531 152.800781 180.816406 153.875 180.714844 C 156.296875 180.457031 158.722656 180.226562 161.160156 180.148438 C 161.671875 180.128906 162.183594 180.015625 162.695312 179.964844 C 163.023438 179.933594 163.148438 179.761719 163.246094 179.453125 C 163.648438 178.164062 164.503906 177.808594 165.722656 178.402344 C 166.089844 178.609375 166.4375 178.84375 166.773438 179.101562 C 167.242188 179.429688 167.328125 179.394531 167.476562 178.78125 C 167.550781 178.460938 167.609375 178.136719 167.691406 177.820312 C 167.773438 177.453125 167.878906 177.09375 168.011719 176.742188 C 168.136719 176.4375 168.300781 176.15625 168.503906 175.894531 C 168.5625 175.808594 168.636719 175.730469 168.714844 175.664062 C 168.796875 175.59375 168.886719 175.535156 168.980469 175.488281 C 169.078125 175.445312 169.179688 175.410156 169.28125 175.390625 C 169.386719 175.371094 169.492188 175.363281 169.597656 175.367188 C 169.707031 175.375 169.808594 175.394531 169.910156 175.425781 C 170.011719 175.460938 170.105469 175.503906 170.195312 175.5625 C 170.285156 175.621094 170.367188 175.6875 170.441406 175.765625 C 170.511719 175.84375 170.574219 175.929688 170.625 176.023438 C 171.039062 176.671875 171.160156 177.417969 171.277344 178.160156 C 171.324219 178.433594 171.300781 178.722656 171.324219 179 C 171.355469 179.351562 171.515625 179.480469 171.882812 179.46875 C 172.820312 179.433594 173.761719 179.394531 174.695312 179.367188 C 178.777344 179.257812 182.855469 179.109375 186.933594 179.046875 C 189.609375 179.007812 192.285156 179.027344 194.953125 179.253906 C 195.1875 179.273438 195.421875 179.253906 195.65625 179.28125 C 196.050781 179.3125 196.398438 179.207031 196.707031 178.957031 C 196.925781 178.785156 197.164062 178.628906 197.382812 178.457031 C 198.847656 177.28125 200.410156 176.238281 202.199219 175.597656 C 202.386719 175.550781 202.539062 175.453125 202.667969 175.308594 C 202.792969 175.167969 202.871094 175 202.894531 174.8125 C 203.03125 174.265625 203.203125 173.730469 203.410156 173.210938 C 203.542969 172.882812 203.519531 172.570312 203.34375 172.265625 C 202.550781 170.921875 202.726562 169.554688 203.300781 168.210938 C 203.683594 167.304688 204.144531 166.433594 204.574219 165.542969 C 205.730469 163.21875 206.820312 160.886719 207.996094 158.582031 C 209.101562 156.359375 210.25 154.152344 211.402344 151.949219 C 211.773438 151.246094 212.195312 150.566406 212.632812 149.898438 C 213.082031 149.167969 213.667969 148.570312 214.390625 148.101562 C 214.933594 147.800781 215.351562 147.378906 215.644531 146.832031 C 215.957031 146.246094 216.574219 146.054688 217.226562 146.15625 C 217.597656 146.21875 217.949219 146.339844 218.28125 146.519531 C 219.207031 147.007812 219.542969 147.761719 219.183594 148.753906 C 219.003906 149.199219 218.96875 149.652344 219.082031 150.117188 C 219.246094 150.769531 219.230469 151.417969 219.027344 152.0625 C 218.789062 152.871094 218.597656 153.695312 218.316406 154.488281 C 217.96875 155.457031 217.570312 156.410156 217.160156 157.359375 C 215.382812 161.441406 213.703125 165.566406 211.753906 169.578125 C 211.425781 170.25 211.140625 170.949219 210.824219 171.628906 C 210.171875 173.019531 209.203125 174.035156 207.597656 174.269531 C 207.300781 174.3125 207.082031 174.46875 206.9375 174.738281 C 206.570312 175.324219 206.191406 175.910156 205.84375 176.535156 C 205.785156 176.707031 205.761719 176.886719 205.773438 177.070312 C 205.773438 177.117188 205.785156 177.160156 205.808594 177.203125 C 206.050781 177.960938 206.292969 178.714844 206.535156 179.46875 C 207.273438 179.863281 208.101562 179.582031 208.878906 179.777344 C 209.109375 179.828125 209.34375 179.859375 209.578125 179.867188 C 211.589844 179.992188 213.605469 180.089844 215.613281 180.242188 C 217.714844 180.398438 219.816406 180.574219 221.910156 180.828125 C 222.992188 180.9375 224.035156 181.195312 225.039062 181.597656 C 225.257812 181.691406 225.476562 181.773438 225.691406 181.867188 C 227.296875 182.539062 228.109375 183.703125 228.039062 185.480469 C 228.011719 186.367188 227.914062 187.246094 227.746094 188.117188 C 227.664062 188.5625 227.496094 188.96875 227.234375 189.339844 C 226.96875 189.707031 226.640625 190 226.246094 190.21875 C 226.121094 190.289062 226.003906 190.359375 225.875 190.421875 C 225.449219 190.628906 225.316406 190.988281 225.238281 191.4375 C 224.761719 194.300781 224.285156 197.167969 223.757812 200.023438 C 223.316406 202.425781 222.664062 204.773438 221.800781 207.058594 C 221.304688 208.375 220.710938 209.644531 220.023438 210.871094 C 219.183594 212.382812 218.121094 213.714844 216.828125 214.867188 C 215.539062 216.015625 214.09375 216.921875 212.496094 217.582031 C 211.417969 218.039062 210.300781 218.40625 209.203125 218.808594 C 208.910156 218.917969 208.574219 218.996094 208.265625 219.101562 C 207.949219 219.183594 207.785156 219.386719 207.761719 219.710938 C 207.734375 220.039062 207.714844 220.367188 207.703125 220.691406 C 207.707031 220.933594 207.644531 221.160156 207.511719 221.363281 C 207.382812 221.570312 207.207031 221.722656 206.988281 221.824219 C 206.492188 222.089844 205.964844 222.285156 205.417969 222.410156 C 204.128906 222.65625 202.828125 222.820312 201.53125 222.996094 C 200.742188 223.113281 199.945312 223.167969 199.164062 223.316406 C 198.144531 223.515625 197.113281 223.488281 196.085938 223.609375 C 194.074219 223.828125 192.058594 223.785156 190.046875 223.902344 C 189.179688 223.925781 188.347656 224.042969 187.667969 224.105469 Z M 202.375 178.226562 C 202.179688 178.179688 202.082031 178.269531 202.039062 178.449219 C 201.820312 178.59375 201.613281 178.75 201.410156 178.914062 C 201.335938 179.011719 201.300781 179.117188 201.308594 179.238281 C 201.308594 179.367188 201.644531 179.355469 201.777344 179.214844 C 201.996094 179.035156 202.105469 178.800781 202.105469 178.515625 C 202.179688 178.40625 202.257812 178.300781 202.339844 178.195312 C 202.378906 178.179688 202.417969 178.160156 202.453125 178.136719 C 202.46875 178.136719 202.453125 178.082031 202.46875 178.054688 Z M 195.335938 185.265625 C 195.164062 185.324219 195.023438 185.429688 194.917969 185.578125 C 194.808594 185.722656 194.753906 185.890625 194.75 186.070312 C 193.871094 186.507812 193.527344 187.40625 192.964844 188.125 C 192.945312 188.160156 192.945312 188.199219 192.964844 188.238281 C 193.035156 188.285156 193.132812 188.363281 193.203125 188.347656 C 193.371094 188.308594 193.605469 188.277344 193.683594 188.152344 C 194.113281 187.503906 194.613281 186.890625 194.765625 186.101562 C 195.164062 185.949219 195.238281 185.601562 195.296875 185.242188 L 195.394531 185.152344 Z M 201.804688 181.320312 C 201.667969 181.433594 201.480469 181.511719 201.398438 181.652344 C 200.238281 183.675781 199.089844 185.703125 197.953125 187.738281 C 197.902344 187.820312 197.878906 187.910156 197.878906 188.003906 C 197.878906 188.078125 197.933594 188.199219 197.992188 188.21875 C 198.800781 188.5 199.285156 188.308594 199.554688 187.597656 C 200.269531 185.722656 200.980469 183.847656 201.679688 181.972656 C 201.734375 181.746094 201.761719 181.519531 201.769531 181.289062 C 201.800781 181.269531 201.828125 181.25 201.859375 181.230469 C 201.875 181.230469 201.878906 181.1875 201.890625 181.167969 Z M 187.324219 220.832031 C 190.40625 220.691406 193.3125 220.5625 196.21875 220.421875 C 196.449219 220.421875 196.683594 220.363281 196.914062 220.328125 C 198.351562 220.113281 199.777344 219.847656 201.222656 219.6875 C 203.269531 219.433594 205.289062 219.023438 207.277344 218.460938 C 209.679688 217.808594 212.019531 216.996094 214.175781 215.703125 C 215.394531 214.976562 216.46875 214.078125 217.402344 213.011719 C 219.027344 211.140625 220.101562 208.964844 220.976562 206.671875 C 222.03125 203.898438 222.675781 201.019531 223.207031 198.113281 C 223.5 196.453125 223.792969 194.789062 224.0625 193.128906 C 224.164062 192.542969 224.261719 191.929688 224.355469 191.328125 C 224.386719 191.121094 224.222656 190.992188 224.007812 191.035156 C 223.183594 191.210938 222.363281 191.417969 221.535156 191.566406 C 219.691406 191.898438 217.851562 192.265625 215.996094 192.511719 C 214.046875 192.765625 212.082031 192.90625 210.132812 193.070312 C 207.703125 193.273438 205.277344 193.503906 202.84375 193.613281 C 200.457031 193.722656 198.0625 193.769531 195.675781 193.90625 C 194.132812 194.003906 192.578125 193.964844 191.03125 194.003906 C 190.5625 194.015625 190.097656 194.050781 189.632812 194.109375 C 188.230469 194.304688 186.824219 194.304688 185.421875 194.109375 C 185.003906 194.050781 184.585938 194.019531 184.164062 194.007812 C 181.679688 193.945312 179.195312 193.921875 176.710938 193.765625 C 174.140625 193.605469 171.558594 193.566406 168.984375 193.375 C 167.585938 193.269531 166.179688 193.179688 164.777344 193.054688 C 163.101562 192.910156 161.421875 192.746094 159.746094 192.566406 C 158.675781 192.449219 157.601562 192.335938 156.542969 192.136719 C 154.703125 191.796875 152.871094 191.40625 151.039062 191.011719 C 150.679688 190.9375 150.542969 191.148438 150.609375 191.484375 C 150.863281 192.769531 151.148438 194.054688 151.34375 195.351562 C 151.777344 198.511719 152.449219 201.625 153.351562 204.683594 C 154.035156 207.085938 155.046875 209.34375 156.386719 211.453125 C 157.703125 213.457031 159.421875 215.011719 161.546875 216.121094 C 163.898438 217.316406 166.363281 218.203125 168.9375 218.777344 C 170.621094 219.1875 172.328125 219.472656 174.042969 219.75 C 176.542969 220.195312 179.0625 220.457031 181.605469 220.527344 C 181.933594 220.527344 182.261719 220.546875 182.585938 220.5625 Z M 186.664062 188.652344 L 186.664062 188.617188 C 187.320312 188.617188 187.976562 188.617188 188.632812 188.617188 C 188.945312 188.632812 189.175781 188.5 189.324219 188.222656 C 189.554688 187.816406 189.792969 187.414062 190.039062 187.011719 C 191.089844 185.230469 192.292969 183.554688 193.640625 181.988281 C 194.140625 181.433594 194.636719 180.875 195.128906 180.316406 C 194.4375 179.933594 193.683594 180.191406 192.960938 180.089844 C 192.496094 180.011719 192.03125 179.964844 191.5625 179.949219 C 188.890625 179.949219 186.214844 179.917969 183.542969 179.949219 C 182.230469 179.949219 180.921875 180.089844 179.609375 180.128906 C 177.925781 180.175781 176.234375 180.171875 174.546875 180.222656 C 173.609375 180.257812 172.675781 180.351562 171.746094 180.445312 C 171.609375 180.445312 171.453125 180.644531 171.371094 180.785156 C 171.328125 180.917969 171.308594 181.054688 171.3125 181.199219 C 171.109375 182.539062 170.949219 183.890625 170.527344 185.191406 C 170.339844 185.753906 170.015625 185.921875 169.453125 185.75 C 169.269531 185.699219 169.097656 185.628906 168.929688 185.539062 C 166.917969 184.421875 164.882812 183.332031 163.71875 181.195312 C 163.695312 181.152344 163.675781 181.097656 163.636719 181.078125 C 163.484375 180.988281 163.320312 180.925781 163.144531 180.890625 C 162.910156 180.898438 162.679688 180.921875 162.445312 180.957031 C 160.339844 181.082031 158.234375 181.167969 156.132812 181.34375 C 154.738281 181.460938 153.34375 181.664062 151.960938 181.914062 C 150.980469 182.074219 150.058594 182.40625 149.199219 182.910156 C 148.675781 183.222656 148.027344 183.535156 148.09375 184.230469 C 148.144531 184.816406 148.730469 185.132812 149.226562 185.402344 C 149.945312 185.761719 150.703125 185.992188 151.503906 186.089844 C 153.554688 186.382812 155.578125 186.695312 157.625 186.910156 C 160.140625 187.175781 162.667969 187.351562 165.1875 187.566406 C 165.375 187.566406 165.5625 187.585938 165.75 187.605469 C 167.238281 187.75 168.726562 187.972656 170.21875 188.03125 C 173.125 188.152344 176.023438 188.417969 178.933594 188.347656 C 179.875 188.324219 180.8125 188.347656 181.75 188.398438 C 183.386719 188.464844 185.023438 188.5625 186.664062 188.652344 Z M 207.078125 173.402344 C 207.535156 173.417969 207.964844 173.324219 208.371094 173.121094 C 208.78125 172.921875 209.117188 172.636719 209.382812 172.269531 C 209.664062 171.894531 209.902344 171.492188 210.09375 171.0625 C 211.667969 167.542969 213.375 164.117188 214.820312 160.558594 C 215.699219 158.386719 216.660156 156.246094 217.523438 154.070312 C 217.804688 153.226562 218.042969 152.375 218.242188 151.507812 C 218.320312 151.136719 218.320312 150.765625 218.242188 150.394531 C 218.164062 149.902344 218.070312 149.515625 217.460938 149.398438 C 217.039062 149.316406 216.65625 149.144531 216.316406 148.882812 C 215.578125 148.3125 214.996094 148.632812 214.441406 149.132812 C 214.089844 149.441406 213.78125 149.789062 213.519531 150.179688 C 212.914062 151.125 212.300781 152.074219 211.785156 153.070312 C 209.355469 157.761719 206.9375 162.484375 204.75 167.304688 C 204.476562 167.890625 204.195312 168.492188 203.949219 169.101562 C 203.609375 169.824219 203.59375 170.554688 203.90625 171.292969 C 204.550781 172.691406 205.511719 173.449219 207.078125 173.402344 Z M 207.621094 187.773438 C 209.378906 187.605469 211.136719 187.40625 212.898438 187.277344 C 216.355469 187.015625 219.796875 186.628906 223.226562 186.101562 C 223.78125 186.019531 224.332031 185.898438 224.871094 185.742188 C 225.515625 185.570312 226.085938 185.253906 226.574219 184.796875 C 226.757812 184.632812 226.859375 184.429688 226.871094 184.183594 C 226.882812 183.933594 226.804688 183.722656 226.636719 183.539062 C 226.203125 183.097656 225.695312 182.769531 225.113281 182.554688 C 223.941406 182.054688 222.722656 181.742188 221.453125 181.621094 C 219.21875 181.375 216.976562 181.199219 214.738281 181.035156 C 212.585938 180.878906 210.433594 180.78125 208.285156 180.65625 C 208.144531 180.652344 208.003906 180.636719 207.867188 180.613281 C 206.429688 180.28125 206.539062 180.703125 206.664062 181.785156 C 206.871094 183.285156 206.855469 184.777344 206.621094 186.269531 C 206.570312 186.640625 206.550781 187.015625 206.558594 187.390625 C 206.546875 187.488281 206.574219 187.574219 206.640625 187.648438 C 206.703125 187.722656 206.789062 187.761719 206.886719 187.761719 C 207.128906 187.804688 207.363281 187.789062 207.621094 187.789062 Z M 187.324219 223.132812 L 197.105469 222.691406 C 197.246094 222.6875 197.386719 222.675781 197.527344 222.65625 C 199.578125 222.386719 201.613281 222.140625 203.652344 221.835938 C 204.496094 221.757812 205.316406 221.574219 206.117188 221.28125 C 206.34375 221.199219 206.523438 221.058594 206.65625 220.855469 C 206.792969 220.65625 206.851562 220.433594 206.84375 220.191406 C 206.84375 219.746094 206.683594 219.53125 206.28125 219.632812 C 204.597656 220.042969 202.898438 220.371094 201.179688 220.609375 C 199.695312 220.820312 198.222656 221.113281 196.730469 221.234375 C 194.628906 221.410156 192.519531 221.457031 190.414062 221.566406 C 189.707031 221.574219 189.011719 221.636719 188.316406 221.757812 C 187.757812 221.832031 187.199219 221.832031 186.640625 221.757812 C 186.128906 221.726562 185.621094 221.621094 185.109375 221.589844 C 182.863281 221.46875 180.613281 221.367188 178.363281 221.253906 C 178.128906 221.246094 177.894531 221.226562 177.664062 221.191406 C 174.707031 220.710938 171.722656 220.398438 168.808594 219.65625 C 168.375 219.542969 168.1875 219.710938 168.199219 220.148438 C 168.21875 220.90625 168.324219 221.089844 168.964844 221.320312 C 169.316406 221.453125 169.679688 221.550781 170.050781 221.613281 C 171.515625 221.839844 173.019531 222.019531 174.5 222.261719 C 176.351562 222.574219 178.214844 222.75 180.089844 222.792969 C 180.417969 222.792969 180.746094 222.808594 181.074219 222.820312 Z M 170.484375 179.734375 C 170.542969 178.886719 170.457031 178.058594 170.222656 177.242188 C 170.113281 176.9375 169.953125 176.660156 169.75 176.40625 C 169.636719 176.328125 169.515625 176.320312 169.390625 176.375 C 169.171875 176.554688 169.003906 176.769531 168.886719 177.027344 C 168.546875 178.09375 168.1875 179.164062 168.421875 180.316406 C 168.464844 180.449219 168.46875 180.585938 168.441406 180.726562 C 168.378906 180.898438 168.28125 181.046875 168.148438 181.167969 C 168.066406 181.222656 167.976562 181.242188 167.878906 181.222656 C 167.78125 181.207031 167.703125 181.160156 167.644531 181.078125 C 167.300781 180.761719 166.984375 180.417969 166.636719 180.105469 C 166.171875 179.632812 165.625 179.28125 165 179.054688 C 164.910156 179.027344 164.816406 179.019531 164.722656 179.035156 C 164.628906 179.054688 164.542969 179.089844 164.46875 179.148438 C 164.394531 179.207031 164.335938 179.28125 164.296875 179.367188 C 164.253906 179.453125 164.238281 179.542969 164.242188 179.640625 C 164.253906 180.375 164.503906 181.011719 164.992188 181.558594 C 166.136719 182.972656 167.65625 183.886719 169.242188 184.703125 C 169.355469 184.746094 169.472656 184.746094 169.585938 184.699219 C 169.699219 184.648438 169.78125 184.566406 169.828125 184.453125 C 169.871094 184.367188 169.902344 184.28125 169.929688 184.191406 C 170.277344 182.722656 170.460938 181.234375 170.484375 179.726562 Z M 190.539062 188.566406 C 191.089844 188.476562 191.589844 188.488281 191.957031 187.996094 C 193.109375 186.457031 194.304688 184.949219 195.476562 183.441406 C 196.175781 182.5625 196.902344 181.703125 197.609375 180.824219 C 197.738281 180.667969 198.035156 180.53125 197.855469 180.28125 C 197.777344 180.171875 197.511719 180.195312 197.328125 180.167969 C 196.8125 180.089844 196.449219 180.328125 196.085938 180.671875 C 194.066406 182.652344 192.335938 184.859375 190.890625 187.292969 C 190.695312 187.613281 190.515625 187.9375 190.355469 188.277344 C 190.335938 188.328125 190.480469 188.464844 190.539062 188.558594 Z M 195.476562 188.339844 C 195.738281 188.339844 195.832031 188.339844 195.921875 188.339844 C 196.113281 188.371094 196.296875 188.339844 196.46875 188.253906 C 196.640625 188.164062 196.765625 188.03125 196.851562 187.855469 C 196.9375 187.691406 197.058594 187.546875 197.144531 187.382812 C 197.960938 185.96875 198.773438 184.550781 199.582031 183.132812 C 200.019531 182.363281 200.445312 181.585938 200.863281 180.804688 C 200.921875 180.695312 200.941406 180.464844 200.882812 180.417969 C 200.734375 180.304688 200.570312 180.253906 200.386719 180.265625 C 200.199219 180.296875 200.039062 180.382812 199.90625 180.515625 C 199.703125 180.707031 199.519531 180.917969 199.355469 181.148438 C 197.78125 183.234375 196.335938 185.410156 195.019531 187.671875 C 194.945312 187.789062 194.886719 187.914062 194.851562 188.050781 C 194.851562 188.136719 194.886719 188.207031 194.957031 188.257812 C 195.128906 188.292969 195.300781 188.320312 195.476562 188.335938 Z M 199.261719 191.09375 L 199.332031 191.09375 C 199.332031 190.628906 199.332031 190.160156 199.332031 189.691406 C 199.332031 189.355469 199.164062 189.191406 198.816406 189.179688 C 198.539062 189.179688 198.257812 189.179688 197.976562 189.179688 C 197.421875 189.207031 196.871094 189.253906 196.316406 189.292969 C 195.9375 189.78125 196.140625 190.367188 196.058594 190.90625 C 195.976562 191.445312 195.96875 191.929688 195.945312 192.441406 C 195.945312 192.734375 196.097656 192.925781 196.339844 192.921875 C 197.179688 192.90625 198.023438 192.878906 198.863281 192.839844 C 198.984375 192.828125 199.082031 192.773438 199.160156 192.679688 C 199.238281 192.585938 199.269531 192.476562 199.257812 192.355469 C 199.269531 191.933594 199.261719 191.511719 199.261719 191.089844 Z M 189.433594 191.386719 C 189.433594 191.5 189.433594 191.679688 189.433594 191.875 C 189.433594 193.222656 189.390625 193.246094 190.71875 193.164062 C 191.273438 193.128906 191.839844 193.277344 192.378906 193.027344 C 192.671875 192.441406 192.449219 191.855469 192.449219 191.269531 C 192.433594 190.800781 192.386719 190.335938 192.308594 189.875 C 192.304688 189.75 192.253906 189.648438 192.164062 189.5625 C 192.074219 189.480469 191.96875 189.441406 191.84375 189.441406 C 191.65625 189.441406 191.46875 189.441406 191.28125 189.441406 C 189.023438 189.5 189.46875 189.1875 189.433594 191.371094 Z M 221.566406 187.921875 C 221.566406 187.75 221.582031 187.628906 221.539062 187.570312 C 221.496094 187.511719 221.34375 187.324219 221.246094 187.332031 C 220.464844 187.40625 219.683594 187.503906 218.898438 187.625 C 218.777344 187.636719 218.675781 187.6875 218.589844 187.777344 C 218.507812 187.867188 218.464844 187.972656 218.464844 188.097656 C 218.464844 188.976562 218.464844 189.855469 218.488281 190.734375 C 218.488281 191.054688 218.71875 191.222656 219.0625 191.167969 C 219.519531 191.09375 219.96875 190.972656 220.429688 190.914062 C 220.597656 190.902344 220.742188 190.839844 220.867188 190.726562 C 220.992188 190.613281 221.066406 190.472656 221.09375 190.304688 C 221.277344 189.46875 221.421875 188.652344 221.566406 187.90625 Z M 203.757812 181.3125 C 203.78125 181.140625 203.78125 180.964844 203.757812 180.792969 C 203.703125 180.679688 203.621094 180.53125 203.523438 180.5 C 203.386719 180.496094 203.265625 180.539062 203.160156 180.625 C 203.089844 180.691406 203.039062 180.769531 203.015625 180.859375 C 202.167969 183.132812 201.324219 185.40625 200.480469 187.675781 C 200.449219 187.761719 200.402344 187.875 200.433594 187.941406 C 200.46875 188.007812 200.59375 188.203125 200.6875 188.210938 C 200.917969 188.230469 201.152344 188.15625 201.382812 188.164062 C 201.898438 188.183594 202.140625 187.898438 202.261719 187.445312 C 202.589844 186.230469 202.941406 185.023438 203.242188 183.804688 C 203.457031 182.890625 203.617188 181.972656 203.757812 181.296875 Z M 183.210938 191.449219 C 183.128906 193.421875 182.957031 193.09375 184.878906 193.191406 C 185.0625 193.191406 185.25 193.191406 185.4375 193.191406 C 185.789062 193.191406 185.972656 193.015625 185.953125 192.675781 C 185.898438 191.742188 185.828125 190.808594 185.746094 189.878906 C 185.734375 189.757812 185.679688 189.65625 185.585938 189.578125 C 185.492188 189.5 185.382812 189.464844 185.261719 189.476562 C 184.933594 189.453125 184.605469 189.4375 184.277344 189.429688 C 183.339844 189.414062 183.3125 189.429688 183.265625 190.3125 C 183.246094 190.6875 183.226562 191.058594 183.210938 191.433594 Z M 211.40625 190.277344 C 211.40625 189.761719 211.40625 189.246094 211.40625 188.734375 C 211.402344 188.636719 211.363281 188.550781 211.292969 188.484375 C 211.21875 188.417969 211.132812 188.386719 211.035156 188.386719 C 210.46875 188.328125 209.914062 188.394531 209.375 188.585938 C 209.261719 188.628906 209.109375 188.761719 209.101562 188.863281 C 208.996094 189.839844 208.90625 190.820312 208.832031 191.792969 C 208.808594 192.109375 209.042969 192.277344 209.390625 192.25 C 209.53125 192.242188 209.667969 192.222656 209.808594 192.199219 C 210.308594 192.105469 210.808594 192.007812 211.304688 191.90625 C 211.632812 191.390625 211.382812 190.816406 211.40625 190.273438 Z M 202.714844 191.316406 L 202.671875 191.316406 C 202.648438 190.992188 202.632812 190.664062 202.59375 190.339844 C 202.449219 189.148438 202.378906 189.09375 201.226562 189.132812 L 200.933594 189.132812 C 200.464844 189.160156 200.347656 189.242188 200.292969 189.683594 C 200.21875 190.378906 200.164062 191.074219 200.140625 191.769531 C 200.105469 192.828125 200.121094 192.851562 201.234375 192.804688 C 201.730469 192.78125 202.269531 192.921875 202.703125 192.546875 Z M 212.394531 190.027344 L 212.394531 190.582031 C 212.394531 191.960938 212.347656 192.101562 213.734375 191.816406 C 214.007812 191.757812 214.289062 191.78125 214.566406 191.746094 C 214.914062 191.710938 215.085938 191.535156 215.042969 191.207031 C 214.929688 190.328125 214.800781 189.449219 214.652344 188.59375 C 214.589844 188.21875 214.359375 188.078125 213.9375 188.089844 C 213.796875 188.085938 213.660156 188.09375 213.519531 188.113281 C 212.425781 188.335938 212.160156 188.195312 212.371094 189.46875 C 212.394531 189.65625 212.402344 189.839844 212.394531 190.027344 Z M 168.246094 190.875 C 168.195312 190.453125 168.128906 189.753906 168.011719 189.0625 C 167.960938 188.878906 167.84375 188.757812 167.660156 188.699219 C 165.46875 188.515625 165.632812 188.265625 165.679688 190.289062 C 165.679688 190.335938 165.679688 190.382812 165.679688 190.429688 C 165.78125 192.59375 165.386719 192.230469 167.730469 192.347656 C 167.777344 192.351562 167.824219 192.351562 167.871094 192.347656 C 167.96875 192.34375 168.050781 192.308594 168.121094 192.246094 C 168.195312 192.179688 168.234375 192.101562 168.246094 192.007812 C 168.253906 191.71875 168.234375 191.433594 168.234375 190.875 Z M 173.859375 190.945312 L 173.832031 190.945312 C 173.832031 190.476562 173.832031 190.007812 173.832031 189.535156 C 173.835938 189.4375 173.804688 189.351562 173.742188 189.28125 C 173.675781 189.207031 173.597656 189.164062 173.5 189.15625 C 173.035156 189.085938 172.570312 189.03125 172.101562 188.980469 C 171.785156 188.945312 171.601562 189.109375 171.574219 189.476562 C 171.507812 190.273438 171.453125 191.070312 171.421875 191.863281 C 171.390625 192.53125 171.433594 192.5625 172.089844 192.664062 C 173.847656 192.933594 173.847656 192.933594 173.863281 191.085938 Z M 205.972656 184.253906 C 205.890625 183.113281 205.816406 182.042969 205.738281 180.972656 C 205.734375 180.878906 205.707031 180.792969 205.65625 180.714844 C 205.605469 180.636719 205.535156 180.589844 205.445312 180.566406 C 205.355469 180.566406 205.285156 180.605469 205.234375 180.679688 C 205.175781 180.855469 205.136719 181.03125 205.117188 181.214844 C 204.957031 182.460938 204.824219 183.714844 204.640625 184.957031 C 204.503906 185.878906 204.296875 186.785156 204.148438 187.703125 C 204.164062 187.839844 204.234375 187.9375 204.355469 187.996094 C 204.539062 188.042969 204.722656 188.054688 204.910156 188.03125 C 205.402344 187.996094 205.617188 187.828125 205.664062 187.378906 C 205.78125 186.304688 205.875 185.242188 205.972656 184.253906 Z M 224.851562 189.058594 C 224.78125 188.617188 224.667969 187.886719 224.523438 187.148438 C 224.453125 187.019531 224.347656 186.945312 224.203125 186.925781 C 222.957031 186.851562 222.628906 187.105469 222.378906 188.308594 C 222.347656 188.445312 222.347656 188.601562 222.3125 188.726562 C 221.78125 190.972656 222 190.585938 223.863281 190.144531 C 224.042969 190.101562 224.226562 190.0625 224.402344 190.003906 C 224.710938 189.894531 224.847656 189.679688 224.851562 189.050781 Z M 177.347656 191.023438 L 177.375 191.023438 C 177.375 191.441406 177.375 191.859375 177.375 192.277344 C 177.394531 192.78125 177.527344 192.902344 178.058594 192.929688 C 178.351562 192.929688 178.617188 192.929688 178.890625 192.929688 C 179.011719 192.929688 179.117188 192.886719 179.203125 192.804688 C 179.289062 192.722656 179.335938 192.617188 179.339844 192.5 C 179.5 191.578125 179.515625 190.65625 179.386719 189.730469 C 179.335938 189.386719 179.167969 189.222656 178.847656 189.214844 C 177.125 189.171875 177.265625 189.035156 177.347656 190.605469 C 177.34375 190.734375 177.335938 190.875 177.335938 191.015625 Z M 180.324219 191.121094 C 180.324219 191.632812 180.324219 192.148438 180.324219 192.664062 C 180.332031 192.78125 180.382812 192.886719 180.46875 192.96875 C 180.554688 193.050781 180.660156 193.097656 180.78125 193.101562 C 180.964844 193.117188 181.152344 193.125 181.339844 193.125 C 182.136719 193.125 182.265625 193.039062 182.316406 192.292969 C 182.371094 191.546875 182.40625 190.796875 182.417969 190.054688 C 182.417969 189.375 182.300781 189.265625 181.59375 189.238281 L 181.300781 189.238281 C 180.363281 189.238281 180.328125 189.261719 180.324219 190.144531 C 180.3125 190.457031 180.3125 190.785156 180.3125 191.113281 Z M 159.257812 190.117188 C 159.238281 189.839844 159.234375 189.554688 159.199219 189.277344 C 159.007812 187.664062 158.953125 187.839844 157.457031 187.765625 C 157.40625 187.757812 157.363281 187.765625 157.320312 187.796875 C 157.230469 187.886719 157.070312 187.996094 157.082031 188.089844 C 157.15625 189.019531 157.253906 189.953125 157.375 190.878906 C 157.421875 191.257812 157.597656 191.394531 158.035156 191.464844 C 158.222656 191.5 158.410156 191.515625 158.59375 191.546875 C 159.371094 191.679688 159.367188 191.683594 159.308594 190.960938 C 159.292969 190.703125 159.277344 190.410156 159.257812 190.117188 Z M 162.011719 190.117188 C 162.011719 189.929688 162.011719 189.742188 162.011719 189.558594 C 162.039062 188.070312 161.9375 188.066406 160.382812 188.089844 C 160.285156 188.085938 160.199219 188.121094 160.132812 188.191406 C 160.066406 188.261719 160.035156 188.347656 160.042969 188.445312 C 160.078125 189.378906 160.117188 190.308594 160.164062 191.238281 C 160.183594 191.621094 160.28125 191.722656 160.65625 191.769531 C 160.976562 191.804688 161.304688 191.851562 161.628906 191.859375 C 161.726562 191.867188 161.8125 191.835938 161.886719 191.769531 C 161.957031 191.699219 161.996094 191.617188 161.996094 191.519531 C 162.023438 191.050781 162.011719 190.582031 162.011719 190.117188 Z M 186.808594 191.394531 L 186.851562 191.394531 C 186.851562 191.910156 186.851562 192.425781 186.851562 192.941406 C 186.871094 193.085938 186.941406 193.195312 187.070312 193.269531 C 187.476562 193.433594 187.886719 193.433594 188.296875 193.269531 C 188.453125 193.15625 188.53125 193.003906 188.539062 192.8125 C 188.566406 192.113281 188.554688 191.40625 188.558594 190.703125 C 188.558594 189.421875 188.476562 189.53125 187.261719 189.53125 C 187.214844 189.527344 187.167969 189.527344 187.121094 189.53125 C 186.972656 189.542969 186.851562 189.605469 186.757812 189.722656 C 186.664062 189.839844 186.632812 189.96875 186.65625 190.117188 C 186.703125 190.5625 186.761719 190.980469 186.808594 191.398438 Z M 193.296875 190.914062 L 193.355469 190.914062 C 193.355469 191.382812 193.324219 191.847656 193.355469 192.308594 C 193.402344 192.894531 193.664062 193.105469 194.273438 193.101562 C 194.410156 193.101562 194.550781 193.09375 194.6875 193.070312 C 194.910156 193.042969 195.023438 192.917969 195.035156 192.699219 C 195.101562 191.769531 195.160156 190.847656 195.21875 189.921875 C 195.234375 189.824219 195.21875 189.734375 195.175781 189.648438 C 195.082031 189.503906 194.964844 189.289062 194.835938 189.269531 C 194.339844 189.207031 193.824219 189.089844 193.367188 189.40625 C 193.347656 189.769531 193.320312 190.132812 193.300781 190.5 C 193.292969 190.640625 193.296875 190.78125 193.296875 190.917969 Z M 164.808594 190.5 C 164.769531 189.988281 164.738281 189.476562 164.6875 188.972656 C 164.644531 188.527344 164.519531 188.382812 164.085938 188.367188 C 162.964844 188.289062 162.863281 188.230469 162.886719 189.410156 C 162.902344 190.152344 162.90625 190.894531 162.933594 191.636719 C 162.953125 191.777344 163.03125 191.882812 163.160156 191.945312 C 163.65625 192.042969 164.21875 192.238281 164.652344 191.945312 C 165.035156 191.699219 164.769531 191.167969 164.808594 190.769531 C 164.820312 190.6875 164.808594 190.59375 164.808594 190.5 Z M 205.324219 190.683594 L 205.355469 190.683594 C 205.355469 190.265625 205.355469 189.84375 205.355469 189.429688 C 205.355469 189.058594 205.199219 188.902344 204.867188 188.890625 C 203.335938 188.84375 203.328125 188.851562 203.445312 190.359375 C 203.460938 190.546875 203.445312 190.730469 203.484375 190.914062 C 203.539062 191.328125 203.589844 191.746094 203.667969 192.152344 C 203.734375 192.492188 203.890625 192.59375 204.257812 192.589844 C 204.394531 192.589844 204.535156 192.589844 204.671875 192.566406 C 205.023438 192.53125 205.203125 192.378906 205.226562 192.066406 C 205.28125 191.617188 205.296875 191.148438 205.324219 190.6875 Z M 217.613281 189.59375 L 217.597656 189.59375 C 217.597656 189.363281 217.597656 189.128906 217.597656 188.898438 C 217.597656 187.75 217.523438 187.726562 216.40625 187.84375 C 216.269531 187.871094 216.136719 187.90625 216.003906 187.949219 C 215.664062 188.039062 215.519531 188.203125 215.5625 188.535156 C 215.679688 189.414062 215.816406 190.277344 215.953125 191.148438 C 215.980469 191.269531 216.042969 191.363281 216.140625 191.429688 C 216.242188 191.5 216.351562 191.527344 216.472656 191.507812 C 217.570312 191.472656 217.628906 191.398438 217.613281 190.429688 C 217.609375 190.15625 217.613281 189.878906 217.613281 189.597656 Z M 206.234375 190.652344 L 206.199219 190.652344 C 206.199219 191.121094 206.1875 191.585938 206.199219 192.054688 C 206.199219 192.234375 206.296875 192.421875 206.539062 192.410156 C 206.777344 192.398438 207.097656 192.375 207.375 192.34375 C 207.730469 192.300781 207.882812 192.167969 207.914062 191.820312 C 207.996094 190.941406 208.066406 190.0625 208.132812 189.183594 C 208.148438 189.03125 208.105469 188.90625 208 188.796875 C 207.894531 188.691406 207.765625 188.648438 207.617188 188.664062 C 207.382812 188.660156 207.152344 188.671875 206.917969 188.699219 C 206.425781 188.757812 206.246094 188.9375 206.230469 189.40625 C 206.234375 189.824219 206.234375 190.234375 206.234375 190.652344 Z M 176.480469 191.183594 L 176.441406 191.183594 C 176.441406 190.808594 176.457031 190.4375 176.441406 190.066406 C 176.394531 189.25 176.265625 189.136719 175.414062 189.152344 C 175.324219 189.152344 175.230469 189.152344 175.136719 189.171875 C 175.015625 189.175781 174.914062 189.222656 174.832031 189.3125 C 174.75 189.402344 174.710938 189.507812 174.714844 189.628906 C 174.714844 190.554688 174.714844 191.480469 174.714844 192.40625 C 174.710938 192.503906 174.738281 192.589844 174.800781 192.667969 C 174.863281 192.742188 174.941406 192.785156 175.039062 192.800781 C 176.488281 192.933594 176.503906 192.972656 176.476562 191.597656 C 176.488281 191.460938 176.492188 191.320312 176.492188 191.183594 Z M 149.992188 188.945312 C 149.972656 188.726562 149.960938 188.445312 149.925781 188.171875 C 149.746094 186.65625 149.699219 186.585938 148.3125 185.871094 C 148.1875 185.828125 148.066406 185.828125 147.941406 185.871094 C 147.894531 185.871094 147.855469 186.03125 147.863281 186.109375 C 147.964844 186.84375 147.960938 187.59375 148.226562 188.304688 C 148.347656 188.636719 148.539062 188.921875 148.804688 189.160156 C 149.070312 189.394531 149.375 189.554688 149.71875 189.640625 C 149.78125 189.660156 149.941406 189.511719 149.980469 189.410156 C 150.007812 189.257812 150.011719 189.101562 149.992188 188.945312 Z M 169.089844 190.617188 L 169.0625 190.617188 C 169.089844 191.128906 169.089844 191.640625 169.15625 192.148438 C 169.210938 192.328125 169.328125 192.445312 169.507812 192.5 C 170.375 192.640625 170.539062 192.546875 170.542969 191.71875 C 170.542969 191.066406 170.582031 190.414062 170.589844 189.761719 C 170.601562 189.574219 170.582031 189.390625 170.53125 189.210938 C 170.484375 189.078125 170.398438 188.984375 170.265625 188.933594 C 169.945312 188.878906 169.621094 188.859375 169.296875 188.875 C 169.195312 188.867188 169.113281 188.898438 169.042969 188.972656 C 168.972656 189.042969 168.941406 189.128906 168.949219 189.230469 C 168.996094 189.703125 169.042969 190.164062 169.089844 190.628906 Z M 155.078125 189.101562 C 155.109375 189.644531 155.109375 190.164062 155.175781 190.675781 C 155.191406 190.816406 155.371094 190.96875 155.515625 191.058594 C 155.644531 191.117188 155.78125 191.144531 155.921875 191.140625 C 156.292969 191.175781 156.488281 191.03125 156.457031 190.691406 C 156.367188 189.757812 156.25 188.832031 156.128906 187.902344 C 156.097656 187.644531 155.804688 187.496094 155.46875 187.523438 C 155.226562 187.539062 155.085938 187.707031 155.078125 188.003906 C 155.070312 188.386719 155.078125 188.761719 155.078125 189.113281 Z M 152.242188 188.808594 L 152.210938 188.808594 C 152.210938 188.484375 152.210938 188.160156 152.210938 187.832031 C 152.1875 187.167969 152.070312 187.039062 151.40625 186.9375 C 151.269531 186.921875 151.128906 186.910156 150.992188 186.910156 C 150.898438 186.90625 150.820312 186.941406 150.757812 187.015625 C 150.699219 187.085938 150.679688 187.167969 150.695312 187.261719 C 150.804688 188.042969 150.917969 188.828125 151.039062 189.605469 C 151.0625 189.746094 151.105469 189.875 151.175781 189.996094 C 151.28125 190.199219 151.882812 190.40625 152.054688 190.265625 C 152.179688 190.128906 152.242188 189.96875 152.25 189.785156 C 152.28125 189.472656 152.242188 189.144531 152.242188 188.820312 Z M 227.125 186.597656 C 227.15625 185.878906 226.960938 185.738281 226.625 185.9375 C 225.386719 186.667969 225.277344 186.230469 225.566406 187.945312 C 225.628906 188.3125 225.667969 188.6875 225.734375 189.054688 C 225.746094 189.140625 225.824219 189.292969 225.851562 189.289062 C 225.988281 189.28125 226.109375 189.234375 226.214844 189.148438 C 226.445312 188.910156 226.621094 188.640625 226.746094 188.335938 C 226.9375 187.648438 227.054688 186.953125 227.125 186.597656 Z M 206.011719 174.449219 C 205.9375 174.371094 205.890625 174.28125 205.816406 174.242188 C 205.488281 174.074219 205.140625 173.949219 204.820312 173.761719 C 204.398438 173.527344 204.234375 173.546875 204.105469 173.933594 C 203.953125 174.371094 203.847656 174.816406 203.785156 175.273438 C 203.773438 175.445312 203.816406 175.597656 203.90625 175.742188 C 204 175.882812 204.125 175.984375 204.285156 176.042969 C 204.574219 176.152344 204.835938 176.109375 205.074219 175.914062 C 205.53125 175.5625 205.839844 175.109375 206 174.558594 C 206.011719 174.519531 206.011719 174.476562 206.003906 174.433594 Z M 154.257812 189.207031 L 154.214844 189.207031 C 154.214844 188.742188 154.214844 188.277344 154.214844 187.8125 C 154.214844 187.40625 153.894531 187.203125 153.421875 187.292969 C 153.308594 187.3125 153.128906 187.445312 153.128906 187.523438 C 153.128906 188.449219 153.175781 189.375 153.234375 190.300781 C 153.234375 190.554688 153.695312 190.808594 154.011719 190.746094 C 154.328125 190.679688 154.261719 190.40625 154.261719 190.183594 C 154.25 189.84375 154.25 189.53125 154.25 189.195312 Z M 218.433594 148.148438 C 218.433594 148.054688 218.417969 147.964844 218.390625 147.875 C 218.171875 147.398438 217.199219 146.929688 216.738281 147.085938 C 216.507812 147.160156 216.296875 147.324219 216.3125 147.578125 C 216.339844 147.769531 216.4375 147.914062 216.605469 148.015625 C 217.015625 148.238281 217.4375 148.433594 217.875 148.601562 C 218.019531 148.632812 218.148438 148.601562 218.261719 148.507812 C 218.378906 148.414062 218.433594 148.292969 218.433594 148.148438 Z M 198.613281 179.332031 C 198.734375 179.304688 198.964844 179.332031 199.082031 179.210938 C 199.761719 178.589844 200.414062 177.941406 201.078125 177.300781 C 201.078125 177.300781 201.078125 177.222656 201.058594 177.207031 C 201.042969 177.1875 200.96875 177.152344 200.941406 177.164062 C 199.941406 177.648438 199.035156 178.269531 198.21875 179.023438 C 198.1875 179.066406 198.179688 179.109375 198.195312 179.15625 C 198.195312 179.191406 198.253906 179.222656 198.292969 179.238281 C 198.375 179.269531 198.460938 179.289062 198.613281 179.332031 Z M 203.96875 178.914062 L 203.925781 178.660156 C 203.867188 178.714844 203.808594 178.773438 203.757812 178.835938 C 203.699219 178.902344 203.660156 178.976562 203.640625 179.0625 C 203.640625 179.128906 203.679688 179.199219 203.707031 179.269531 C 203.773438 179.234375 203.867188 179.210938 203.90625 179.152344 C 203.941406 179.078125 203.960938 178.996094 203.964844 178.914062 Z M 205.386719 179.296875 L 205.335938 179.1875 C 205.308594 179.210938 205.257812 179.238281 205.265625 179.253906 C 205.289062 179.308594 205.3125 179.363281 205.34375 179.414062 Z M 205.386719 179.296875 " fill-opacity="1" fill-rule="nonzero"/></g><path fill="#000000" d="M 139.523438 208.351562 C 139.464844 208.234375 139.441406 208.058594 139.347656 208.011719 C 138.910156 207.738281 138.453125 207.5 137.980469 207.300781 C 136.429688 206.746094 134.84375 206.339844 133.21875 206.085938 C 131.265625 205.761719 129.304688 205.671875 127.328125 205.8125 C 125.449219 205.902344 123.609375 206.234375 121.816406 206.8125 C 120.925781 207.109375 120.035156 207.402344 119.140625 207.691406 C 118.960938 207.730469 118.777344 207.746094 118.59375 207.734375 C 118.542969 207.726562 118.507812 207.703125 118.484375 207.65625 C 118.460938 207.578125 118.417969 207.457031 118.453125 207.410156 C 118.570312 207.257812 118.703125 207.125 118.851562 207.011719 C 119.558594 206.464844 120.273438 205.9375 120.976562 205.390625 C 122.308594 204.308594 123.8125 203.570312 125.480469 203.171875 C 126.128906 203.0625 126.777344 202.992188 127.433594 202.957031 C 127.480469 202.949219 127.519531 202.925781 127.550781 202.886719 C 127.558594 202.84375 127.546875 202.804688 127.515625 202.769531 C 127.425781 202.667969 127.328125 202.570312 127.222656 202.476562 C 125.84375 201.351562 124.457031 200.226562 123.078125 199.097656 C 122.894531 198.953125 122.726562 198.792969 122.570312 198.621094 C 122.527344 198.566406 122.5 198.5 122.488281 198.429688 C 122.480469 198.359375 122.488281 198.292969 122.511719 198.226562 C 122.539062 198.160156 122.578125 198.105469 122.636719 198.058594 C 122.691406 198.015625 122.753906 197.988281 122.824219 197.976562 C 123.011719 197.945312 123.195312 197.925781 123.382812 197.917969 C 124.570312 197.847656 125.726562 198.101562 126.855469 198.378906 C 130.007812 199.167969 132.804688 200.632812 135.242188 202.777344 C 136.1875 203.554688 137.058594 204.410156 137.851562 205.339844 C 138.796875 206.464844 139.914062 207.386719 141.195312 208.101562 C 142.859375 209.066406 144.511719 210.054688 146.179688 211.035156 C 146.226562 211.046875 146.273438 211.054688 146.320312 211.054688 C 146.324219 210.984375 146.324219 210.910156 146.320312 210.839844 C 146.304688 210.792969 146.285156 210.753906 146.25 210.71875 C 145.53125 209.726562 144.722656 208.8125 143.832031 207.976562 C 142.292969 206.464844 140.75 204.953125 139.238281 203.414062 C 136.03125 200.21875 133.257812 196.679688 130.921875 192.804688 C 130.609375 192.277344 130.25 191.785156 129.921875 191.273438 C 129.824219 191.113281 129.738281 190.949219 129.667969 190.777344 C 129.636719 190.660156 129.65625 190.550781 129.730469 190.449219 C 129.800781 190.351562 129.894531 190.296875 130.019531 190.289062 C 130.15625 190.292969 130.292969 190.316406 130.429688 190.359375 C 135.027344 192.140625 138.570312 195.132812 140.863281 199.53125 C 141.820312 201.359375 142.726562 203.214844 143.667969 205.050781 C 144.570312 206.8125 145.628906 208.472656 146.839844 210.035156 C 147.132812 210.410156 147.425781 210.765625 147.75 211.113281 C 148.746094 212.195312 149.84375 213.128906 151.304688 213.527344 C 151.53125 213.589844 151.75 213.675781 151.957031 213.789062 C 152.046875 213.828125 152.109375 213.894531 152.148438 213.988281 C 152.183594 214.078125 152.183594 214.171875 152.144531 214.261719 C 152.117188 214.355469 152.058594 214.425781 151.972656 214.476562 C 151.886719 214.523438 151.796875 214.539062 151.699219 214.515625 C 151.199219 214.394531 150.710938 214.242188 150.234375 214.058594 C 149.0625 213.570312 147.878906 213.527344 146.675781 213.929688 C 144.796875 214.515625 142.882812 214.976562 140.941406 215.308594 C 139.628906 215.519531 138.320312 215.511719 137.011719 215.289062 C 135.902344 215.105469 134.8125 214.824219 133.679688 214.835938 C 133.539062 214.808594 133.441406 214.734375 133.382812 214.601562 C 133.367188 214.460938 133.40625 214.339844 133.507812 214.234375 C 133.652344 214.113281 133.808594 214.023438 133.984375 213.957031 C 136.800781 212.828125 139.695312 212.101562 142.757812 212.328125 C 143.929688 212.417969 145.078125 212.625 146.238281 212.769531 C 146.472656 212.789062 146.703125 212.789062 146.933594 212.769531 C 146.964844 212.769531 147.015625 212.726562 147.015625 212.699219 C 147.015625 212.648438 147 212.605469 146.96875 212.566406 C 146.871094 212.46875 146.765625 212.382812 146.648438 212.304688 C 145.421875 211.613281 144.1875 210.9375 142.964844 210.253906 C 142.085938 209.765625 141.144531 209.503906 140.140625 209.472656 C 137.8125 209.339844 135.5625 209.707031 133.394531 210.566406 C 132.132812 211.070312 130.890625 211.628906 129.640625 212.15625 C 127.714844 212.964844 125.730469 213.480469 123.628906 213.414062 C 122.976562 213.394531 122.328125 213.292969 121.671875 213.226562 C 121.253906 213.1875 120.835938 213.152344 120.414062 213.105469 C 119.996094 213.0625 119.578125 213.027344 119.160156 212.957031 C 118.574219 212.855469 118.316406 212.683594 118.398438 212.511719 C 118.542969 212.21875 118.839844 212.195312 119.085938 212.085938 C 119.730469 211.792969 120.382812 211.539062 121.015625 211.242188 C 122.972656 210.332031 124.898438 209.351562 127.011719 208.835938 C 128.605469 208.449219 130.195312 208.050781 131.851562 208.011719 C 132.644531 207.996094 133.445312 207.835938 134.230469 207.871094 C 135.355469 207.921875 136.472656 208.078125 137.589844 208.207031 C 138.238281 208.285156 138.878906 208.460938 139.535156 208.328125 C 139.542969 208.367188 139.558594 208.40625 139.582031 208.445312 C 139.597656 208.464844 139.648438 208.445312 139.683594 208.460938 Z M 142.859375 205.496094 C 142.8125 205.378906 142.765625 205.25 142.703125 205.128906 C 141.886719 203.496094 141.070312 201.867188 140.242188 200.238281 C 139.925781 199.617188 139.597656 198.992188 139.242188 198.390625 C 137.671875 195.683594 135.496094 193.621094 132.707031 192.207031 C 132.34375 192.019531 132.011719 191.722656 131.5625 191.777344 C 131.375 191.800781 131.398438 191.878906 131.996094 192.847656 C 132.289062 193.324219 132.585938 193.800781 132.894531 194.273438 C 135.613281 198.460938 139.019531 202.058594 142.570312 205.539062 C 142.636719 205.585938 142.714844 205.617188 142.792969 205.625 C 142.820312 205.585938 142.84375 205.542969 142.859375 205.496094 Z M 136.738281 205.992188 L 137.054688 205.953125 C 137.039062 205.878906 137.054688 205.785156 136.996094 205.730469 C 136.011719 204.597656 134.917969 203.582031 133.714844 202.683594 C 131.039062 200.609375 128.023438 199.324219 124.667969 198.835938 C 124.601562 198.835938 124.519531 198.898438 124.445312 198.933594 C 124.472656 199.023438 124.515625 199.101562 124.574219 199.175781 C 125.277344 199.792969 125.964844 200.425781 126.695312 201.003906 C 128.472656 202.476562 130.425781 203.648438 132.5625 204.523438 C 133.960938 205.074219 135.386719 205.519531 136.738281 205.992188 Z M 134.101562 208.542969 C 133.070312 208.671875 131.753906 208.792969 130.46875 208.996094 C 127.664062 209.417969 124.992188 210.265625 122.457031 211.539062 C 122.085938 211.730469 121.722656 211.929688 121.351562 212.125 C 121.699219 212.488281 122.195312 212.367188 122.613281 212.503906 C 122.890625 212.5625 123.171875 212.582031 123.453125 212.5625 C 125.496094 212.574219 127.453125 212.164062 129.316406 211.328125 C 131.433594 210.429688 133.5 209.414062 135.769531 208.90625 C 135.855469 208.871094 135.929688 208.824219 136 208.765625 C 135.929688 208.722656 135.863281 208.648438 135.789062 208.644531 C 135.335938 208.613281 134.867188 208.589844 134.117188 208.542969 Z M 138.957031 214.59375 C 140.804688 214.59375 142.523438 214.171875 144.234375 213.695312 C 144.277344 213.679688 144.320312 213.660156 144.359375 213.632812 C 144.390625 213.605469 144.417969 213.574219 144.445312 213.539062 C 144.40625 213.515625 144.371094 213.46875 144.332031 213.460938 C 143.691406 213.355469 143.050781 213.210938 142.40625 213.167969 C 140.375 213.011719 138.429688 213.480469 136.488281 214 C 136.445312 214.011719 136.402344 214.03125 136.367188 214.0625 C 136.339844 214.082031 136.300781 214.132812 136.308594 214.152344 C 136.332031 214.195312 136.363281 214.226562 136.40625 214.246094 C 137.257812 214.597656 138.148438 214.5625 138.972656 214.59375 Z M 128.375 204.917969 C 129.027344 204.917969 129.679688 204.917969 130.335938 204.917969 C 130.425781 204.90625 130.515625 204.890625 130.605469 204.863281 C 130.542969 204.753906 130.503906 204.605469 130.410156 204.554688 C 130.136719 204.382812 129.839844 204.25 129.53125 204.152344 C 128.414062 203.847656 127.285156 203.777344 126.140625 203.949219 C 124.996094 204.121094 123.9375 204.511719 122.957031 205.132812 C 122.882812 205.183594 122.816406 205.246094 122.761719 205.320312 C 122.738281 205.347656 122.71875 205.410156 122.730469 205.429688 C 122.761719 205.46875 122.800781 205.492188 122.847656 205.5 C 122.988281 205.519531 123.125 205.519531 123.261719 205.5 C 124.949219 205.113281 126.660156 204.914062 128.390625 204.90625 Z M 128.375 204.917969 " fill-opacity="1" fill-rule="nonzero"/><path fill="#000000" d="M 186.652344 168.828125 C 186.609375 169.226562 186.527344 169.617188 186.40625 170 C 185.753906 171.730469 184.800781 173.273438 183.550781 174.636719 C 183.464844 174.746094 183.355469 174.835938 183.226562 174.894531 C 183.0625 174.972656 182.890625 174.984375 182.710938 174.929688 C 182.304688 174.703125 181.929688 174.425781 181.585938 174.105469 C 180.390625 172.933594 179.566406 171.539062 179.117188 169.925781 C 178.914062 169.320312 178.9375 168.726562 179.1875 168.144531 C 179.25 167.976562 179.347656 167.832031 179.472656 167.707031 C 179.597656 167.582031 179.746094 167.484375 179.910156 167.421875 C 180.078125 167.359375 180.25 167.335938 180.425781 167.34375 C 180.605469 167.355469 180.773438 167.402344 180.929688 167.484375 C 181.425781 167.757812 181.847656 168.117188 182.191406 168.566406 C 182.429688 168.832031 182.515625 168.8125 182.699219 168.519531 C 182.992188 168.046875 183.289062 167.574219 183.617188 167.109375 C 183.867188 166.757812 184.191406 166.5 184.589844 166.332031 C 184.871094 166.1875 185.167969 166.15625 185.476562 166.238281 C 185.78125 166.320312 186.023438 166.496094 186.195312 166.761719 C 186.589844 167.28125 186.664062 167.878906 186.652344 168.828125 Z M 185.828125 168.664062 C 185.78125 168.269531 185.765625 167.984375 185.699219 167.714844 C 185.660156 167.457031 185.511719 167.285156 185.265625 167.203125 C 185.015625 167.125 184.800781 167.175781 184.613281 167.355469 C 184.398438 167.539062 184.214844 167.75 184.0625 167.988281 C 183.769531 168.507812 183.476562 169.050781 183.203125 169.597656 C 183.058594 169.890625 182.980469 170.234375 182.589844 170.289062 C 182.109375 170.351562 181.964844 169.964844 181.792969 169.636719 C 181.59375 169.203125 181.316406 168.832031 180.953125 168.523438 C 180.722656 168.304688 180.464844 168.261719 180.175781 168.394531 C 179.929688 168.582031 179.832031 168.828125 179.882812 169.132812 C 179.898438 169.273438 179.925781 169.410156 179.960938 169.546875 C 180.265625 170.910156 180.898438 172.097656 181.859375 173.109375 C 182.964844 174.304688 182.839844 174.171875 183.78125 172.972656 C 184.507812 172.042969 185.082031 171.023438 185.5 169.917969 C 185.632812 169.507812 185.742188 169.089844 185.828125 168.664062 Z M 185.828125 168.664062 " fill-opacity="1" fill-rule="nonzero"/><path fill="#000000" d="M 174.394531 161.585938 C 174.253906 164.003906 173.492188 165.957031 171.800781 167.488281 C 171.589844 167.734375 171.332031 167.800781 171.03125 167.691406 C 169.058594 166.738281 167.480469 165.410156 166.980469 163.15625 C 166.894531 162.738281 166.902344 162.324219 167.003906 161.910156 C 167.296875 160.785156 168.253906 160.367188 169.300781 160.878906 C 169.625 161.0625 169.941406 161.265625 170.242188 161.488281 C 170.324219 161.542969 170.410156 161.554688 170.503906 161.527344 C 170.597656 161.5 170.664062 161.441406 170.703125 161.351562 C 170.8125 161.09375 170.894531 160.824219 171.019531 160.574219 C 171.160156 160.277344 171.320312 159.996094 171.503906 159.722656 C 171.652344 159.476562 171.855469 159.285156 172.113281 159.15625 C 172.371094 159.023438 172.644531 158.972656 172.933594 159.003906 C 173.601562 159.074219 173.882812 159.589844 174.070312 160.113281 C 174.214844 160.597656 174.324219 161.085938 174.394531 161.585938 Z M 173.515625 162.019531 C 173.402344 161.433594 173.320312 160.847656 173.164062 160.261719 C 173.117188 160.085938 173.003906 159.976562 172.824219 159.941406 C 172.644531 159.90625 172.496094 159.957031 172.382812 160.101562 C 172.019531 160.476562 171.769531 160.914062 171.632812 161.417969 C 171.503906 161.863281 171.417969 162.324219 171.296875 162.777344 C 171.265625 162.988281 171.144531 163.125 170.941406 163.1875 C 170.734375 163.25 170.5625 163.199219 170.417969 163.042969 C 170.152344 162.78125 169.933594 162.457031 169.652344 162.226562 C 169.371094 161.980469 169.066406 161.773438 168.734375 161.605469 C 168.574219 161.535156 168.414062 161.53125 168.253906 161.601562 C 168.09375 161.671875 167.988281 161.792969 167.933594 161.957031 C 167.839844 162.175781 167.792969 162.398438 167.792969 162.636719 C 167.839844 163.253906 168.027344 163.824219 168.359375 164.351562 C 168.976562 165.257812 169.757812 165.988281 170.703125 166.546875 C 171.101562 166.785156 171.332031 166.734375 171.679688 166.351562 C 172.8125 165.125 173.421875 163.683594 173.511719 162.019531 Z M 173.515625 162.019531 " fill-opacity="1" fill-rule="nonzero"/><path fill="#000000" d="M 182.894531 162.660156 C 182.644531 162.664062 182.414062 162.601562 182.199219 162.476562 C 181.984375 162.355469 181.816406 162.183594 181.699219 161.96875 C 181.546875 161.714844 181.488281 161.445312 181.519531 161.15625 C 181.546875 160.863281 181.660156 160.609375 181.859375 160.394531 C 182.03125 160.167969 182.234375 159.972656 182.472656 159.808594 C 182.644531 159.699219 182.828125 159.636719 183.03125 159.617188 C 183.234375 159.601562 183.429688 159.636719 183.617188 159.71875 C 183.800781 159.804688 183.957031 159.925781 184.078125 160.089844 C 184.203125 160.25 184.28125 160.433594 184.308594 160.632812 C 184.351562 160.914062 184.351562 161.191406 184.308594 161.472656 C 184.242188 162.203125 183.722656 162.648438 182.894531 162.660156 Z M 182.414062 161.324219 C 182.4375 161.410156 182.476562 161.492188 182.53125 161.5625 C 182.695312 161.769531 182.898438 161.820312 183.144531 161.714844 C 183.378906 161.605469 183.492188 161.425781 183.484375 161.167969 C 183.519531 160.910156 183.421875 160.71875 183.191406 160.597656 C 183.152344 160.570312 183.109375 160.554688 183.0625 160.546875 C 182.882812 160.59375 182.734375 160.691406 182.617188 160.832031 C 182.496094 160.976562 182.429688 161.140625 182.414062 161.324219 Z M 182.414062 161.324219 " fill-opacity="1" fill-rule="nonzero"/><path fill="#000000" d="M 215.871094 174.796875 C 215.871094 175.464844 215.464844 176.066406 214.9375 176.195312 C 214.585938 176.292969 214.246094 176.265625 213.917969 176.109375 C 213.589844 175.953125 213.351562 175.710938 213.203125 175.378906 C 213.027344 175.019531 213.027344 174.664062 213.203125 174.304688 C 213.242188 174.222656 213.300781 174.144531 213.347656 174.066406 C 213.753906 173.398438 214.171875 173.152344 214.664062 173.289062 C 215.023438 173.363281 215.3125 173.539062 215.539062 173.824219 C 215.769531 174.109375 215.878906 174.433594 215.871094 174.796875 Z M 214.992188 174.882812 C 215 174.742188 214.960938 174.617188 214.875 174.503906 C 214.792969 174.390625 214.679688 174.316406 214.542969 174.28125 C 214.402344 174.300781 214.28125 174.363281 214.179688 174.460938 C 214.082031 174.5625 214.019531 174.683594 214 174.824219 C 214.015625 175.082031 214.148438 175.253906 214.390625 175.339844 C 214.535156 175.355469 214.664062 175.320312 214.78125 175.234375 C 214.898438 175.144531 214.96875 175.027344 214.988281 174.882812 Z M 214.992188 174.882812 " fill-opacity="1" fill-rule="nonzero"/><path fill="#000000" d="M 128.328125 196.570312 C 128.082031 196.570312 127.84375 196.523438 127.621094 196.425781 C 127.394531 196.324219 127.199219 196.1875 127.035156 196.003906 C 126.867188 195.824219 126.746094 195.617188 126.667969 195.382812 C 126.59375 195.148438 126.566406 194.910156 126.589844 194.664062 C 126.613281 194.449219 126.695312 194.261719 126.832031 194.097656 C 126.972656 193.929688 127.148438 193.820312 127.355469 193.761719 C 128.433594 193.414062 129.65625 194.464844 129.515625 195.597656 C 129.464844 195.882812 129.328125 196.121094 129.101562 196.304688 C 128.875 196.488281 128.617188 196.578125 128.328125 196.570312 Z M 128.558594 195.324219 C 128.546875 195.132812 128.472656 194.964844 128.339844 194.824219 C 128.207031 194.683594 128.046875 194.601562 127.855469 194.582031 C 127.695312 194.554688 127.453125 194.773438 127.480469 194.917969 C 127.503906 195.105469 127.585938 195.269531 127.71875 195.40625 C 127.851562 195.546875 128.011719 195.628906 128.199219 195.664062 C 128.296875 195.664062 128.378906 195.636719 128.449219 195.570312 C 128.519531 195.503906 128.554688 195.421875 128.558594 195.328125 Z M 128.558594 195.324219 " fill-opacity="1" fill-rule="nonzero"/><path fill="#000000" d="M 163.535156 172.851562 C 163.441406 172.851562 163.347656 172.84375 163.257812 172.832031 C 162.621094 172.6875 162.359375 172.1875 162.175781 171.660156 C 162.085938 171.433594 162.066406 171.203125 162.113281 170.964844 C 162.15625 170.730469 162.265625 170.523438 162.429688 170.347656 C 163.234375 169.445312 164.625 170.203125 164.847656 170.933594 C 164.910156 171.148438 164.921875 171.371094 164.886719 171.589844 C 164.851562 171.8125 164.769531 172.019531 164.644531 172.203125 C 164.515625 172.390625 164.355469 172.539062 164.164062 172.652344 C 163.96875 172.765625 163.757812 172.832031 163.535156 172.851562 Z M 163.5 171.9375 C 163.773438 171.917969 163.945312 171.777344 164.011719 171.507812 C 164.023438 171.363281 163.988281 171.234375 163.902344 171.117188 C 163.816406 170.996094 163.707031 170.921875 163.5625 170.886719 C 163.472656 170.851562 163.382812 170.847656 163.289062 170.878906 C 163.195312 170.90625 163.125 170.964844 163.074219 171.046875 C 163.011719 171.230469 163.019531 171.40625 163.101562 171.582031 C 163.1875 171.753906 163.316406 171.875 163.5 171.9375 Z M 163.5 171.9375 " fill-opacity="1" fill-rule="nonzero"/><g clip-path="url(#f56b7fc564)"><path fill="#000000" d="M 117.613281 201.410156 C 117.777344 201.402344 117.9375 201.425781 118.09375 201.480469 C 118.25 201.535156 118.390625 201.617188 118.511719 201.726562 C 118.636719 201.835938 118.734375 201.964844 118.808594 202.113281 C 118.882812 202.261719 118.925781 202.417969 118.9375 202.582031 C 118.9375 202.769531 118.90625 202.953125 118.835938 203.128906 C 118.769531 203.304688 118.667969 203.460938 118.542969 203.601562 C 118.414062 203.738281 118.265625 203.847656 118.09375 203.929688 C 117.925781 204.011719 117.746094 204.0625 117.558594 204.074219 C 117.382812 204.078125 117.210938 204.046875 117.046875 203.984375 C 116.882812 203.917969 116.738281 203.824219 116.613281 203.703125 C 116.484375 203.578125 116.386719 203.433594 116.320312 203.273438 C 116.25 203.109375 116.214844 202.941406 116.214844 202.765625 C 116.261719 202.402344 116.414062 202.097656 116.675781 201.84375 C 116.9375 201.589844 117.25 201.445312 117.613281 201.410156 Z M 118.023438 202.707031 C 117.96875 202.636719 117.914062 202.5 117.816406 202.449219 C 117.6875 202.386719 117.558594 202.382812 117.429688 202.445312 C 117.296875 202.503906 117.214844 202.605469 117.179688 202.742188 C 117.160156 202.832031 117.171875 202.917969 117.21875 203 C 117.265625 203.078125 117.332031 203.132812 117.417969 203.160156 C 117.566406 203.183594 117.699219 203.152344 117.816406 203.0625 C 117.9375 202.976562 118.007812 202.855469 118.023438 202.707031 Z M 118.023438 202.707031 " fill-opacity="1" fill-rule="nonzero"/></g><path fill="#000000" d="M 192.277344 173.90625 C 192.441406 173.90625 192.601562 173.9375 192.753906 174 C 192.90625 174.0625 193.039062 174.15625 193.152344 174.273438 C 193.269531 174.390625 193.355469 174.527344 193.410156 174.683594 C 193.46875 174.839844 193.496094 174.996094 193.484375 175.164062 C 193.390625 175.964844 192.847656 176.585938 192.019531 176.527344 C 191.855469 176.507812 191.703125 176.457031 191.558594 176.378906 C 191.414062 176.300781 191.289062 176.195312 191.183594 176.070312 C 191.078125 175.941406 191 175.800781 190.945312 175.644531 C 190.894531 175.488281 190.875 175.328125 190.886719 175.164062 C 190.886719 174.984375 190.925781 174.816406 191 174.652344 C 191.074219 174.492188 191.175781 174.351562 191.308594 174.230469 C 191.441406 174.113281 191.589844 174.027344 191.757812 173.96875 C 191.925781 173.914062 192.101562 173.890625 192.277344 173.90625 Z M 192.507812 175.082031 C 192.453125 175.023438 192.378906 174.894531 192.269531 174.859375 C 192.050781 174.785156 191.835938 175.023438 191.890625 175.289062 C 191.925781 175.417969 192 175.515625 192.121094 175.582031 C 192.296875 175.675781 192.519531 175.402344 192.507812 175.085938 Z M 192.507812 175.082031 " fill-opacity="1" fill-rule="nonzero"/><path fill="#000000" d="M 147.121094 206.320312 C 147.117188 206.109375 147.152344 205.902344 147.238281 205.707031 C 147.320312 205.511719 147.445312 205.34375 147.601562 205.203125 C 147.761719 205.058594 147.945312 204.957031 148.148438 204.898438 C 148.351562 204.835938 148.558594 204.824219 148.769531 204.855469 C 148.964844 204.882812 149.117188 204.972656 149.234375 205.128906 C 149.609375 205.609375 149.6875 206.132812 149.476562 206.707031 C 149.214844 207.378906 148.746094 207.667969 148.074219 207.523438 C 147.792969 207.460938 147.5625 207.316406 147.382812 207.089844 C 147.207031 206.867188 147.117188 206.609375 147.121094 206.320312 Z M 148.726562 206.253906 C 148.5625 206.089844 148.46875 205.914062 148.34375 205.890625 C 148.132812 205.851562 148.050781 206.058594 148.011719 206.234375 C 147.96875 206.410156 148.15625 206.644531 148.304688 206.59375 C 148.449219 206.542969 148.542969 206.40625 148.726562 206.246094 Z M 148.726562 206.253906 " fill-opacity="1" fill-rule="nonzero"/><path fill="#000000" d="M 228.8125 210.867188 C 229.039062 210.832031 229.257812 210.769531 229.46875 210.679688 C 231.246094 209.625 233.023438 208.578125 234.769531 207.480469 C 235.527344 206.996094 236.195312 206.410156 236.769531 205.71875 C 238.234375 203.992188 239.902344 202.488281 241.773438 201.210938 C 244.210938 199.542969 246.890625 198.476562 249.808594 198.015625 C 250.601562 197.929688 251.394531 197.917969 252.1875 197.980469 C 252.453125 197.980469 252.578125 198.453125 252.378906 198.664062 C 252.148438 198.898438 251.910156 199.117188 251.65625 199.324219 C 250.316406 200.425781 248.972656 201.523438 247.632812 202.628906 C 247.574219 202.703125 247.53125 202.78125 247.503906 202.871094 C 247.585938 202.90625 247.664062 202.976562 247.738281 202.976562 C 250.160156 202.976562 252.171875 204.015625 254.039062 205.433594 C 254.859375 206.058594 255.6875 206.671875 256.5 207.304688 C 256.5625 207.351562 256.621094 207.507812 256.59375 207.539062 C 256.511719 207.640625 256.410156 207.710938 256.28125 207.746094 C 256.140625 207.765625 256.003906 207.75 255.867188 207.699219 C 254.933594 207.40625 253.996094 207.113281 253.066406 206.777344 C 251.457031 206.222656 249.785156 206.023438 248.109375 205.832031 C 247.550781 205.769531 246.984375 205.777344 246.421875 205.761719 C 243.300781 205.695312 240.257812 206.171875 237.304688 207.183594 C 236.527344 207.40625 235.839844 207.785156 235.234375 208.324219 C 235.203125 208.355469 235.164062 208.410156 235.171875 208.445312 C 235.195312 208.488281 235.230469 208.511719 235.28125 208.519531 C 235.371094 208.511719 235.464844 208.5 235.554688 208.480469 C 237.136719 208.277344 238.714844 208.070312 240.292969 207.871094 C 240.574219 207.851562 240.859375 207.851562 241.140625 207.871094 C 245.019531 208.023438 248.761719 208.726562 252.28125 210.46875 C 253.621094 211.132812 255.019531 211.683594 256.386719 212.28125 C 256.433594 212.292969 256.472656 212.3125 256.511719 212.34375 C 256.574219 212.410156 256.613281 212.488281 256.632812 212.578125 C 256.632812 212.648438 256.5625 212.777344 256.503906 212.789062 C 256.105469 212.925781 255.695312 213.019531 255.277344 213.070312 C 254.292969 213.117188 253.324219 213.277344 252.34375 213.382812 C 250.734375 213.5625 249.15625 213.417969 247.609375 212.941406 C 246.585938 212.625 245.578125 212.234375 244.578125 211.839844 C 243.699219 211.496094 242.855469 211.09375 241.988281 210.742188 C 239.929688 209.894531 237.785156 209.472656 235.558594 209.472656 C 234.066406 209.4375 232.683594 209.808594 231.414062 210.589844 C 230.375 211.222656 229.277344 211.761719 228.214844 212.347656 C 228.097656 212.425781 227.992188 212.515625 227.898438 212.621094 C 227.871094 212.648438 227.847656 212.714844 227.863281 212.734375 C 227.894531 212.773438 227.933594 212.792969 227.980469 212.796875 C 228.214844 212.800781 228.449219 212.789062 228.679688 212.765625 C 229.746094 212.632812 230.8125 212.472656 231.882812 212.347656 C 234.011719 212.113281 236.097656 212.429688 238.140625 212.996094 C 239.175781 213.289062 240.195312 213.679688 241.195312 214.046875 C 241.359375 214.128906 241.503906 214.242188 241.628906 214.378906 C 241.675781 214.4375 241.691406 214.5 241.679688 214.574219 C 241.667969 214.648438 241.628906 214.703125 241.5625 214.738281 C 241.441406 214.804688 241.3125 214.84375 241.175781 214.859375 C 240.175781 214.773438 239.222656 215.046875 238.242188 215.21875 C 236.65625 215.507812 235.074219 215.503906 233.492188 215.199219 C 231.601562 214.839844 229.75 214.355469 227.921875 213.8125 C 226.941406 213.523438 225.972656 213.566406 225.023438 213.9375 C 224.542969 214.117188 224.0625 214.320312 223.574219 214.480469 C 223.390625 214.527344 223.210938 214.519531 223.03125 214.457031 C 222.910156 214.394531 222.828125 214.296875 222.78125 214.164062 C 222.777344 214.070312 222.8125 213.988281 222.886719 213.929688 C 223.078125 213.78125 223.28125 213.664062 223.507812 213.574219 C 225.242188 213.070312 226.542969 211.976562 227.671875 210.601562 C 228.988281 209.007812 230.132812 207.292969 231.097656 205.460938 C 232.011719 203.71875 232.882812 201.945312 233.777344 200.183594 C 234.597656 198.539062 235.601562 197.019531 236.789062 195.617188 C 238.425781 193.761719 240.355469 192.296875 242.582031 191.21875 C 243.167969 190.925781 243.773438 190.671875 244.375 190.410156 C 244.546875 190.328125 244.722656 190.277344 244.910156 190.257812 C 245.050781 190.253906 245.171875 190.300781 245.277344 190.394531 C 245.339844 190.511719 245.363281 190.636719 245.339844 190.769531 C 245.324219 190.863281 245.285156 190.945312 245.222656 191.019531 C 244.011719 192.863281 242.832031 194.722656 241.582031 196.539062 C 239.957031 198.90625 238.023438 201.027344 236.050781 203.097656 C 234.4375 204.792969 232.699219 206.378906 231.050781 208.042969 C 230.324219 208.773438 229.667969 209.574219 228.996094 210.359375 C 228.890625 210.484375 228.894531 210.695312 228.847656 210.867188 C 228.804688 210.867188 228.761719 210.878906 228.722656 210.894531 C 228.703125 210.894531 228.695312 210.949219 228.683594 210.976562 Z M 252.5 205.5 L 252.589844 205.601562 L 252.464844 205.539062 C 251.621094 204.855469 250.675781 204.375 249.628906 204.097656 C 248.582031 203.820312 247.523438 203.769531 246.453125 203.945312 C 245.722656 204.078125 244.960938 204.15625 244.371094 204.683594 C 244.335938 204.714844 244.304688 204.75 244.269531 204.78125 C 244.324219 204.824219 244.371094 204.894531 244.421875 204.898438 C 244.609375 204.898438 244.796875 204.898438 244.984375 204.898438 C 247.230469 204.878906 249.46875 204.953125 251.667969 205.484375 C 251.949219 205.523438 252.230469 205.527344 252.511719 205.5 Z M 232.191406 205.5 C 232.578125 205.5 232.75 205.191406 232.964844 204.964844 C 234.609375 203.292969 236.257812 201.625 237.8125 199.863281 C 239.785156 197.597656 241.558594 195.179688 243.132812 192.617188 C 243.25 192.414062 243.351562 192.203125 243.441406 191.988281 C 243.457031 191.945312 243.449219 191.90625 243.421875 191.871094 C 243.351562 191.824219 243.257812 191.753906 243.195312 191.769531 C 242.96875 191.839844 242.753906 191.929688 242.542969 192.03125 C 240.972656 192.808594 239.566406 193.808594 238.320312 195.039062 C 237.078125 196.269531 236.058594 197.667969 235.265625 199.226562 C 234.261719 201.136719 233.3125 203.074219 232.347656 205.003906 C 232.285156 205.175781 232.246094 205.351562 232.226562 205.535156 C 232.1875 205.546875 232.152344 205.5625 232.117188 205.582031 C 232.097656 205.582031 232.097656 205.636719 232.089844 205.664062 Z M 250.449219 199.007812 C 250.386719 198.957031 250.316406 198.84375 250.265625 198.851562 C 248.925781 199.046875 247.613281 199.375 246.339844 199.835938 C 243.203125 201.007812 240.601562 202.933594 238.316406 205.332031 C 238.175781 205.515625 238.050781 205.710938 237.945312 205.917969 C 238.1875 206.109375 238.390625 205.917969 238.597656 205.847656 C 239.3125 205.632812 240.035156 205.429688 240.726562 205.15625 C 241.957031 204.703125 243.160156 204.183594 244.339844 203.605469 C 246.53125 202.421875 248.527344 200.96875 250.328125 199.246094 C 250.382812 199.175781 250.425781 199.097656 250.457031 199.015625 Z M 251.441406 212.574219 C 251.679688 212.550781 252.148438 212.53125 252.613281 212.460938 C 252.976562 212.402344 253.332031 212.28125 253.691406 212.1875 C 253.433594 211.84375 253.019531 211.785156 252.664062 211.621094 C 252.304688 211.457031 251.984375 211.304688 251.648438 211.140625 C 250.050781 210.34375 248.375 209.773438 246.621094 209.425781 C 245.105469 209.152344 243.59375 208.839844 242.066406 208.664062 C 241.089844 208.597656 240.109375 208.589844 239.132812 208.640625 C 239.039062 208.65625 238.953125 208.6875 238.871094 208.730469 C 238.945312 208.785156 239.011719 208.863281 239.09375 208.882812 C 241.148438 209.351562 243.089844 210.179688 245.003906 211.058594 C 245.214844 211.152344 245.429688 211.253906 245.644531 211.351562 C 247.5 212.136719 249.433594 212.546875 251.449219 212.578125 Z M 235.660156 214.625 C 236.527344 214.574219 237.089844 214.574219 237.640625 214.5 C 237.953125 214.425781 238.253906 214.320312 238.539062 214.179688 C 238.410156 213.804688 238.027344 213.914062 237.769531 213.8125 C 237.371094 213.675781 236.964844 213.578125 236.550781 213.515625 C 234.789062 213.199219 233.050781 212.929688 231.273438 213.347656 C 231.003906 213.410156 230.730469 213.464844 230.460938 213.523438 C 230.71875 213.671875 230.988281 213.792969 231.273438 213.886719 C 232.042969 214.070312 232.824219 214.21875 233.601562 214.351562 C 234.382812 214.480469 235.183594 214.558594 235.671875 214.621094 Z M 235.660156 214.625 " fill-opacity="1" fill-rule="nonzero"/><path fill="#000000" d="M 247.054688 193.691406 C 247.769531 193.675781 248.152344 193.910156 248.363281 194.496094 C 248.402344 194.582031 248.425781 194.671875 248.441406 194.761719 C 248.527344 195.839844 247.300781 196.832031 246.28125 196.503906 C 245.835938 196.375 245.574219 196.082031 245.488281 195.625 C 245.320312 194.855469 246.160156 193.605469 247.054688 193.691406 Z M 247.464844 194.96875 C 247.433594 194.886719 247.421875 194.761719 247.359375 194.726562 C 247.246094 194.652344 247.125 194.625 246.992188 194.640625 C 246.691406 194.714844 246.503906 194.902344 246.421875 195.199219 C 246.402344 195.328125 246.425781 195.449219 246.492188 195.5625 C 246.554688 195.640625 246.632812 195.675781 246.730469 195.675781 C 246.921875 195.660156 247.085938 195.585938 247.226562 195.453125 C 247.363281 195.320312 247.441406 195.160156 247.464844 194.96875 Z M 247.464844 194.96875 " fill-opacity="1" fill-rule="nonzero"/><g clip-path="url(#257e74e09f)"><path fill="#000000" d="M 256.085938 202.578125 C 256.085938 202.410156 256.125 202.253906 256.191406 202.101562 C 256.257812 201.953125 256.355469 201.820312 256.476562 201.710938 C 256.601562 201.597656 256.738281 201.515625 256.894531 201.464844 C 257.050781 201.410156 257.214844 201.390625 257.378906 201.402344 C 258.140625 201.519531 258.773438 202.066406 258.707031 202.921875 C 258.6875 203.234375 258.570312 203.503906 258.34375 203.726562 C 258.117188 203.945312 257.847656 204.0625 257.535156 204.074219 C 257.335938 204.085938 257.140625 204.054688 256.957031 203.980469 C 256.769531 203.90625 256.609375 203.796875 256.46875 203.652344 C 256.332031 203.511719 256.230469 203.34375 256.160156 203.15625 C 256.09375 202.96875 256.070312 202.777344 256.085938 202.578125 Z M 257.378906 203.285156 C 257.558594 203.09375 257.710938 202.992188 257.773438 202.851562 C 257.855469 202.660156 257.648438 202.414062 257.40625 202.40625 C 257.230469 202.40625 257.003906 202.46875 257.03125 202.675781 C 257.117188 202.898438 257.234375 203.101562 257.390625 203.285156 Z M 257.378906 203.285156 " fill-opacity="1" fill-rule="nonzero"/></g><path fill="#000000" d="M 225.4375 206.179688 C 225.4375 206 225.453125 205.859375 225.472656 205.722656 C 225.480469 205.59375 225.515625 205.472656 225.574219 205.355469 C 225.636719 205.242188 225.71875 205.144531 225.820312 205.066406 C 225.925781 204.988281 226.039062 204.9375 226.167969 204.910156 C 226.292969 204.882812 226.421875 204.882812 226.546875 204.910156 C 226.832031 204.921875 227.089844 205.011719 227.320312 205.179688 C 227.554688 205.347656 227.71875 205.566406 227.816406 205.835938 C 227.886719 206.019531 227.910156 206.210938 227.894531 206.410156 C 227.875 206.605469 227.8125 206.789062 227.710938 206.960938 C 227.605469 207.128906 227.472656 207.265625 227.304688 207.375 C 227.136719 207.480469 226.953125 207.542969 226.757812 207.566406 C 226.46875 207.59375 226.203125 207.523438 225.964844 207.355469 C 225.730469 207.191406 225.574219 206.964844 225.503906 206.683594 C 225.472656 206.519531 225.449219 206.351562 225.4375 206.179688 Z M 226.902344 206.339844 C 226.902344 206.046875 226.675781 205.785156 226.507812 205.878906 C 226.402344 205.949219 226.335938 206.046875 226.3125 206.171875 C 226.285156 206.414062 226.539062 206.683594 226.691406 206.59375 C 226.804688 206.539062 226.863281 206.410156 226.914062 206.339844 Z M 226.902344 206.339844 " fill-opacity="1" fill-rule="nonzero"/><path fill="#000000" d="M 246.847656 215.105469 C 246.832031 215.394531 246.726562 215.644531 246.527344 215.851562 C 246.328125 216.058594 246.085938 216.179688 245.796875 216.210938 C 245.484375 216.242188 245.199219 216.164062 244.945312 215.984375 C 244.6875 215.804688 244.519531 215.5625 244.445312 215.257812 C 244.4375 215.210938 244.4375 215.164062 244.445312 215.117188 C 244.445312 214.53125 245.105469 214.019531 245.832031 214.027344 C 245.96875 214.03125 246.101562 214.0625 246.230469 214.117188 C 246.359375 214.175781 246.46875 214.253906 246.566406 214.355469 C 246.660156 214.457031 246.730469 214.570312 246.78125 214.703125 C 246.832031 214.832031 246.851562 214.96875 246.847656 215.105469 Z M 245.605469 215.28125 L 245.65625 215.222656 L 245.574219 215.222656 Z M 245.605469 215.28125 " fill-opacity="1" fill-rule="nonzero"/><path fill="#000000" d="M 130.515625 215.105469 C 130.511719 215.257812 130.476562 215.402344 130.414062 215.539062 C 130.351562 215.679688 130.265625 215.800781 130.15625 215.902344 C 130.046875 216.007812 129.921875 216.085938 129.78125 216.140625 C 129.640625 216.195312 129.492188 216.21875 129.339844 216.214844 C 129.027344 216.214844 128.753906 216.109375 128.519531 215.902344 C 128.285156 215.695312 128.148438 215.4375 128.109375 215.125 C 128.109375 214.835938 128.210938 214.582031 128.410156 214.371094 C 128.609375 214.164062 128.855469 214.050781 129.144531 214.035156 C 129.882812 214.011719 130.507812 214.5 130.515625 215.105469 Z M 129.257812 215.28125 L 129.308594 215.210938 L 129.230469 215.210938 Z M 129.257812 215.28125 " fill-opacity="1" fill-rule="nonzero"/><path fill="#000000" d="M 185.734375 211.441406 C 185.476562 210.210938 185.101562 209.703125 184.117188 209.1875 C 182.910156 208.554688 181.714844 207.914062 180.515625 207.273438 C 179.75 206.898438 179.074219 206.394531 178.492188 205.773438 C 178.171875 205.429688 177.902344 205.050781 177.6875 204.632812 C 177.183594 203.53125 177.808594 202.523438 179.019531 202.429688 C 179.894531 202.347656 180.695312 202.554688 181.417969 203.054688 C 182.824219 203.996094 183.851562 205.246094 184.5 206.808594 C 184.871094 207.773438 185.339844 208.683594 185.90625 209.546875 C 186.171875 209.929688 186.359375 210.363281 186.59375 210.773438 C 186.640625 210.84375 186.699219 210.90625 186.765625 210.964844 C 186.8125 210.882812 186.898438 210.8125 186.902344 210.730469 C 186.894531 210.308594 186.917969 209.890625 186.972656 209.472656 C 187.136719 208.679688 186.886719 208.003906 186.542969 207.320312 C 186.195312 206.636719 185.855469 205.882812 185.519531 205.164062 C 185.050781 204.175781 184.796875 203.132812 184.75 202.039062 C 184.699219 200.75 184.9375 199.515625 185.988281 198.59375 C 186.988281 197.710938 188.015625 197.710938 189.011719 198.578125 C 189.738281 199.242188 190.136719 200.070312 190.199219 201.054688 C 190.300781 201.902344 190.234375 202.738281 190.003906 203.5625 C 189.703125 204.597656 189.3125 205.597656 188.832031 206.566406 C 187.863281 208.519531 187.871094 208.542969 188.007812 210.742188 C 188.023438 210.832031 188.050781 210.917969 188.085938 211.003906 C 188.15625 210.964844 188.253906 210.9375 188.292969 210.875 C 188.816406 210.046875 189.351562 209.214844 189.851562 208.367188 C 190.019531 208.035156 190.160156 207.6875 190.269531 207.328125 C 190.878906 205.714844 191.863281 204.375 193.222656 203.3125 C 194.015625 202.644531 194.933594 202.351562 195.964844 202.433594 C 196.464844 202.457031 196.867188 202.664062 197.183594 203.050781 C 197.347656 203.226562 197.453125 203.433594 197.496094 203.667969 C 197.539062 203.90625 197.515625 204.136719 197.425781 204.359375 C 197.171875 205.089844 196.738281 205.691406 196.125 206.164062 C 195.488281 206.640625 194.824219 207.078125 194.132812 207.472656 C 193.074219 208.058594 191.992188 208.648438 190.890625 209.164062 C 190.300781 209.398438 189.871094 209.804688 189.609375 210.386719 C 189.519531 210.601562 189.378906 210.792969 189.289062 211.011719 C 189.226562 211.171875 189.121094 211.421875 189.191406 211.515625 C 189.363281 211.75 189.503906 211.46875 189.617188 211.378906 C 190.464844 210.703125 191.378906 210.132812 192.355469 209.671875 C 192.914062 209.425781 193.488281 209.234375 194.082031 209.101562 C 194.601562 208.984375 195.105469 209.023438 195.597656 209.222656 C 195.78125 209.285156 195.933594 209.390625 196.046875 209.550781 C 196.160156 209.710938 196.214844 209.886719 196.210938 210.082031 C 196.230469 210.691406 196 211.179688 195.515625 211.546875 C 194.953125 212.0625 194.304688 212.429688 193.574219 212.648438 C 192.402344 212.976562 191.226562 213.328125 190.054688 213.65625 C 189.558594 213.800781 189.054688 213.910156 188.558594 214.046875 C 188.0625 214.1875 187.972656 214.3125 187.972656 214.859375 C 187.972656 215.65625 187.972656 216.453125 187.957031 217.25 C 187.9375 217.433594 187.890625 217.609375 187.8125 217.777344 C 187.730469 217.96875 187.285156 217.996094 187.210938 217.804688 C 187.078125 217.507812 186.996094 217.203125 186.957031 216.878906 C 186.917969 216.175781 186.957031 215.472656 186.933594 214.769531 C 186.957031 214.597656 186.917969 214.441406 186.8125 214.300781 C 186.707031 214.160156 186.566406 214.082031 186.390625 214.058594 C 184.90625 213.644531 183.414062 213.238281 181.921875 212.832031 C 181.140625 212.636719 180.425781 212.296875 179.78125 211.8125 C 179.394531 211.53125 179.089844 211.183594 178.863281 210.761719 C 178.523438 210.070312 178.769531 209.429688 179.480469 209.175781 C 179.882812 209.027344 180.296875 208.992188 180.71875 209.070312 C 182.242188 209.332031 183.535156 210.050781 184.769531 210.929688 C 185.0625 211.136719 185.28125 211.496094 185.71875 211.449219 C 185.757812 211.53125 185.71875 211.742188 185.90625 211.558594 Z M 185.570312 201.804688 C 185.652344 202.449219 185.78125 203.089844 185.957031 203.71875 C 186.28125 204.640625 186.714844 205.527344 187.097656 206.433594 C 187.191406 206.648438 187.273438 206.917969 187.542969 206.878906 C 187.675781 206.859375 187.804688 206.625 187.882812 206.464844 C 188.417969 205.320312 188.976562 204.191406 189.261719 202.945312 C 189.492188 202.007812 189.429688 201.089844 189.074219 200.191406 C 188.960938 199.847656 188.773438 199.554688 188.503906 199.3125 C 188.238281 199.066406 187.929688 198.902344 187.578125 198.820312 C 187.042969 198.707031 186.214844 199.367188 185.9375 200.148438 C 185.777344 200.691406 185.65625 201.242188 185.570312 201.804688 Z M 195.542969 203.21875 C 195.101562 203.324219 194.679688 203.472656 194.273438 203.667969 C 192.742188 204.605469 191.683594 205.925781 191.097656 207.625 C 191.085938 207.71875 191.113281 207.800781 191.179688 207.871094 C 191.257812 207.910156 191.335938 207.910156 191.414062 207.871094 C 192.585938 207.226562 193.800781 206.601562 194.960938 205.910156 C 195.386719 205.617188 195.761719 205.273438 196.09375 204.875 C 196.269531 204.660156 196.410156 204.421875 196.515625 204.160156 C 196.574219 204.027344 196.578125 203.890625 196.53125 203.75 C 196.480469 203.613281 196.390625 203.511719 196.257812 203.445312 C 196.027344 203.359375 195.789062 203.28125 195.550781 203.21875 Z M 179.136719 203.285156 C 178.535156 203.285156 178.230469 203.816406 178.550781 204.421875 C 178.859375 205.015625 179.300781 205.484375 179.875 205.828125 C 181.117188 206.554688 182.382812 207.242188 183.644531 207.933594 C 183.699219 207.964844 183.808594 207.90625 183.886719 207.875 C 183.902344 207.875 183.886719 207.789062 183.886719 207.75 C 183.34375 206.042969 182.316406 204.707031 180.808594 203.738281 C 180.304688 203.398438 179.753906 203.246094 179.148438 203.285156 Z M 195.265625 210.230469 C 195.199219 210.160156 195.144531 210.046875 195.074219 210.035156 C 194.464844 209.917969 193.875 209.972656 193.300781 210.210938 C 191.949219 210.75 190.738281 211.511719 189.671875 212.5 C 189.636719 212.53125 189.609375 212.570312 189.589844 212.613281 C 189.574219 212.644531 189.574219 212.679688 189.589844 212.714844 C 189.613281 212.746094 189.671875 212.789062 189.703125 212.777344 C 191.160156 212.492188 192.582031 212.074219 193.960938 211.523438 C 194.5 211.3125 194.921875 210.960938 195.222656 210.46875 C 195.25 210.390625 195.265625 210.3125 195.269531 210.230469 Z M 180.554688 209.9375 L 179.902344 210.011719 C 179.808594 210.03125 179.742188 210.085938 179.703125 210.175781 C 179.667969 210.265625 179.675781 210.351562 179.734375 210.429688 C 179.878906 210.667969 180.058594 210.875 180.277344 211.046875 C 180.828125 211.402344 181.410156 211.695312 182.019531 211.929688 C 182.988281 212.257812 183.992188 212.484375 184.980469 212.742188 C 185.109375 212.746094 185.234375 212.722656 185.351562 212.679688 C 185.316406 212.59375 185.265625 212.511719 185.207031 212.441406 C 184.183594 211.46875 183.011719 210.730469 181.6875 210.230469 C 181.289062 210.09375 180.875 210.023438 180.558594 209.945312 Z M 180.554688 209.9375 " fill-opacity="1" fill-rule="nonzero"/><path fill="#000000" d="M 181.484375 182.367188 C 181.660156 182.363281 181.828125 182.394531 181.992188 182.457031 C 182.15625 182.519531 182.300781 182.613281 182.425781 182.738281 C 182.554688 182.859375 182.652344 183 182.71875 183.164062 C 182.789062 183.324219 182.824219 183.492188 182.824219 183.667969 C 182.816406 183.867188 182.777344 184.058594 182.699219 184.242188 C 182.625 184.425781 182.519531 184.589844 182.386719 184.734375 C 182.25 184.882812 182.097656 185 181.917969 185.089844 C 181.742188 185.179688 181.554688 185.234375 181.359375 185.253906 C 180.476562 185.28125 179.957031 184.425781 179.941406 183.828125 C 179.941406 183.625 179.980469 183.433594 180.0625 183.25 C 180.140625 183.066406 180.253906 182.90625 180.398438 182.765625 C 180.546875 182.628906 180.710938 182.523438 180.902344 182.457031 C 181.089844 182.386719 181.285156 182.355469 181.484375 182.367188 Z M 181.839844 183.664062 C 181.828125 183.546875 181.777344 183.453125 181.6875 183.375 C 181.597656 183.300781 181.496094 183.261719 181.378906 183.265625 C 181.234375 183.289062 181.117188 183.355469 181.027344 183.46875 C 180.9375 183.582031 180.898438 183.710938 180.910156 183.855469 C 180.910156 183.972656 180.945312 184.074219 181.019531 184.167969 C 181.089844 184.257812 181.183594 184.316406 181.300781 184.339844 C 181.464844 184.320312 181.601562 184.242188 181.707031 184.113281 C 181.8125 183.980469 181.855469 183.832031 181.839844 183.667969 Z M 181.839844 183.664062 " fill-opacity="1" fill-rule="nonzero"/><g fill="#000000" fill-opacity="1"><g transform="translate(84.548266, 189.80188)"><g/></g></g><g fill="#000000" fill-opacity="1"><g transform="translate(86.700327, 205.932334)"><g><path d="M 15.265625 5.125 C 15.398438 4.050781 15.335938 3.039062 15.078125 2.09375 C 14.535156 0.175781 13.554688 -0.585938 12.140625 -0.203125 C 11.523438 -0.0234375 11.015625 0.351562 10.609375 0.9375 C 10.203125 1.519531 9.878906 2.175781 9.640625 2.90625 C 9.398438 3.632812 9.144531 4.367188 8.875 5.109375 C 8.613281 5.859375 8.238281 6.53125 7.75 7.125 C 7.269531 7.726562 6.675781 8.128906 5.96875 8.328125 C 4.769531 8.660156 3.753906 8.507812 2.921875 7.875 C 2.085938 7.238281 1.472656 6.210938 1.078125 4.796875 C 0.691406 3.390625 0.71875 2.085938 1.15625 0.890625 L 1.984375 1.15625 C 1.640625 2.28125 1.625 3.40625 1.9375 4.53125 C 2.25 5.65625 2.710938 6.457031 3.328125 6.9375 C 3.953125 7.425781 4.691406 7.550781 5.546875 7.3125 C 6.140625 7.144531 6.640625 6.769531 7.046875 6.1875 C 7.460938 5.601562 7.796875 4.941406 8.046875 4.203125 C 8.304688 3.472656 8.570312 2.734375 8.84375 1.984375 C 9.125 1.242188 9.507812 0.570312 10 -0.03125 C 10.5 -0.632812 11.109375 -1.035156 11.828125 -1.234375 C 12.753906 -1.492188 13.585938 -1.351562 14.328125 -0.8125 C 15.066406 -0.28125 15.597656 0.570312 15.921875 1.75 C 16.253906 2.9375 16.328125 4.101562 16.140625 5.25 Z M 15.265625 5.125 "/></g></g></g><g fill="#000000" fill-opacity="1"><g transform="translate(92.921224, 225.238549)"><g><path d="M 6.109375 0.75 L 0.640625 1.21875 L 0.15625 0.296875 L 16.046875 -1.03125 L 16.3125 -0.515625 L 6.109375 11.75 L 5.59375 10.765625 L 9.125 6.546875 Z M 14.71875 -0.078125 C 14.6875 -0.0859375 14.597656 -0.078125 14.453125 -0.046875 C 13.847656 0.0546875 13.316406 0.125 12.859375 0.15625 L 7 0.671875 L 9.6875 5.859375 L 13.46875 1.359375 C 14.175781 0.460938 14.59375 -0.015625 14.71875 -0.078125 Z M 14.71875 -0.078125 "/></g></g></g><g fill="#000000" fill-opacity="1"><g transform="translate(104.287955, 244.9024)"><g><path d="M 1.734375 2.0625 L 12.875 -7.3125 C 13.78125 -6.382812 14.515625 -5.582031 15.078125 -4.90625 C 15.972656 -3.851562 16.4375 -2.75 16.46875 -1.59375 C 16.5 -0.4375 16.015625 0.5625 15.015625 1.40625 C 14.335938 1.96875 13.535156 2.296875 12.609375 2.390625 C 11.691406 2.492188 10.859375 2.445312 10.109375 2.25 C 9.898438 3.082031 9.664062 4.085938 9.40625 5.265625 C 9.144531 6.453125 8.992188 7.210938 8.953125 7.546875 C 8.804688 8.742188 9.023438 9.785156 9.609375 10.671875 L 9.109375 11.078125 C 8.578125 10.429688 8.234375 9.832031 8.078125 9.28125 C 7.929688 8.726562 7.894531 8.113281 7.96875 7.4375 C 8.039062 6.769531 8.460938 4.894531 9.234375 1.8125 C 8.367188 0.78125 7.617188 -0.171875 6.984375 -1.046875 L 2.375 2.828125 Z M 9.453125 0.84375 C 9.835938 1.289062 10.550781 1.519531 11.59375 1.53125 C 12.644531 1.550781 13.566406 1.222656 14.359375 0.546875 C 15.160156 -0.117188 15.539062 -0.894531 15.5 -1.78125 C 15.46875 -2.675781 15.078125 -3.566406 14.328125 -4.453125 C 13.929688 -4.921875 13.457031 -5.441406 12.90625 -6.015625 L 7.59375 -1.5625 C 8.226562 -0.6875 8.847656 0.113281 9.453125 0.84375 Z M 9.453125 0.84375 "/></g></g></g><g fill="#000000" fill-opacity="1"><g transform="translate(119.593467, 261.550853)"><g><path d="M 5.84375 -1.921875 L 1.09375 0.828125 L 0.265625 0.203125 L 14.078125 -7.765625 L 14.53125 -7.421875 L 10.515625 8.03125 L 9.640625 7.359375 L 11.046875 2.046875 Z M 13.265625 -6.34375 C 13.242188 -6.332031 13.175781 -6.285156 13.0625 -6.203125 C 12.5625 -5.847656 12.109375 -5.554688 11.703125 -5.328125 L 6.625 -2.375 L 11.265625 1.15625 L 12.78125 -4.5 C 13.019531 -5.625 13.179688 -6.238281 13.265625 -6.34375 Z M 13.265625 -6.34375 "/></g></g></g><g fill="#000000" fill-opacity="1"><g transform="translate(138.239424, 274.473736)"><g><path d="M 6.171875 2.875 L 5.28125 2.46875 L 7.484375 -2.28125 L 6.46875 -13.109375 L 7.546875 -12.609375 L 8.265625 -4.109375 C 8.304688 -3.609375 8.332031 -3.179688 8.34375 -2.828125 C 8.46875 -2.953125 8.796875 -3.195312 9.328125 -3.5625 L 16.328125 -8.515625 L 17.34375 -8.046875 L 8.359375 -1.828125 Z M 6.171875 2.875 "/></g></g></g><g fill="#000000" fill-opacity="1"><g transform="translate(158.111446, 282.518075)"><g><path d="M 4.625 -13.890625 L 5.671875 -13.59375 L 5.40625 -12.640625 L 4.140625 -11.359375 L 3.6875 -11.484375 L 4.265625 -12.625 Z M 4.625 -13.890625 "/></g></g></g><g fill="#000000" fill-opacity="1"><g transform="translate(169.014454, 285.273769)"><g><path d="M 10.609375 -12.09375 C 9.679688 -12.632812 8.726562 -12.96875 7.75 -13.09375 C 5.769531 -13.34375 4.691406 -12.738281 4.515625 -11.28125 C 4.429688 -10.644531 4.578125 -10.019531 4.953125 -9.40625 C 5.335938 -8.800781 5.820312 -8.25 6.40625 -7.75 C 6.988281 -7.25 7.566406 -6.734375 8.140625 -6.203125 C 8.722656 -5.679688 9.195312 -5.082031 9.5625 -4.40625 C 9.925781 -3.726562 10.0625 -3.019531 9.96875 -2.28125 C 9.8125 -1.050781 9.28125 -0.175781 8.375 0.34375 C 7.476562 0.875 6.300781 1.046875 4.84375 0.859375 C 3.394531 0.679688 2.203125 0.148438 1.265625 -0.734375 L 1.84375 -1.390625 C 2.726562 -0.640625 3.753906 -0.191406 4.921875 -0.046875 C 6.085938 0.0976562 7.015625 -0.015625 7.703125 -0.390625 C 8.390625 -0.773438 8.785156 -1.40625 8.890625 -2.28125 C 8.972656 -2.894531 8.820312 -3.503906 8.4375 -4.109375 C 8.050781 -4.710938 7.566406 -5.273438 6.984375 -5.796875 C 6.410156 -6.316406 5.832031 -6.847656 5.25 -7.390625 C 4.675781 -7.929688 4.207031 -8.546875 3.84375 -9.234375 C 3.476562 -9.929688 3.34375 -10.644531 3.4375 -11.375 C 3.5625 -12.332031 4.015625 -13.046875 4.796875 -13.515625 C 5.578125 -13.992188 6.570312 -14.15625 7.78125 -14 C 9 -13.84375 10.097656 -13.460938 11.078125 -12.859375 Z M 10.609375 -12.09375 "/></g></g></g><g fill="#000000" fill-opacity="1"><g transform="translate(189.029695, 286.847679)"><g/></g></g><g fill="#000000" fill-opacity="1"><g transform="translate(205.297842, 285.450654)"><g><path d="M -0.78125 -14.796875 C 0.238281 -15.128906 1.289062 -15.425781 2.375 -15.6875 C 3.457031 -15.945312 4.453125 -15.90625 5.359375 -15.5625 C 6.273438 -15.21875 6.851562 -14.546875 7.09375 -13.546875 C 7.28125 -12.785156 7.238281 -12.03125 6.96875 -11.28125 C 6.707031 -10.53125 6.328125 -9.921875 5.828125 -9.453125 C 6.847656 -9.390625 7.757812 -9.078125 8.5625 -8.515625 C 9.375 -7.953125 9.882812 -7.222656 10.09375 -6.328125 C 10.394531 -5.085938 10.226562 -4.046875 9.59375 -3.203125 C 8.957031 -2.359375 7.953125 -1.769531 6.578125 -1.4375 C 5.210938 -1.113281 3.890625 -0.859375 2.609375 -0.671875 Z M 6.5 -2.328125 C 7.457031 -2.566406 8.179688 -3.023438 8.671875 -3.703125 C 9.171875 -4.390625 9.320312 -5.148438 9.125 -5.984375 C 8.925781 -6.816406 8.445312 -7.46875 7.6875 -7.9375 C 6.9375 -8.40625 6.015625 -8.625 4.921875 -8.59375 C 4.398438 -8.59375 3.816406 -8.515625 3.171875 -8.359375 C 2.535156 -8.203125 2.097656 -8.097656 1.859375 -8.046875 L 3.375 -1.6875 C 3.976562 -1.757812 5.019531 -1.972656 6.5 -2.328125 Z M 6.125 -13.34375 C 5.957031 -14.0625 5.523438 -14.546875 4.828125 -14.796875 C 4.128906 -15.054688 3.40625 -15.09375 2.65625 -14.90625 C 1.90625 -14.726562 1.140625 -14.523438 0.359375 -14.296875 L 1.65625 -8.84375 C 1.832031 -8.882812 2.15625 -8.960938 2.625 -9.078125 C 3.101562 -9.191406 3.820312 -9.320312 4.78125 -9.46875 C 5.289062 -9.9375 5.6875 -10.519531 5.96875 -11.21875 C 6.25 -11.914062 6.300781 -12.625 6.125 -13.34375 Z M 6.125 -13.34375 "/></g></g></g><g fill="#000000" fill-opacity="1"><g transform="translate(226.452555, 279.394635)"><g><path d="M 0.921875 -6.078125 L 1.234375 -0.59375 L 0.296875 -0.140625 L -0.609375 -16.0625 L -0.078125 -16.3125 L 11.90625 -5.78125 L 10.90625 -5.296875 L 6.796875 -8.9375 Z M 0.3125 -14.703125 C 0.3125 -14.679688 0.320312 -14.59375 0.34375 -14.4375 C 0.425781 -13.832031 0.484375 -13.304688 0.515625 -12.859375 L 0.859375 -6.984375 L 6.125 -9.53125 L 1.71875 -13.4375 C 0.84375 -14.15625 0.375 -14.578125 0.3125 -14.703125 Z M 0.3125 -14.703125 "/></g></g></g><g fill="#000000" fill-opacity="1"><g transform="translate(246.387051, 268.561618)"><g><path d="M -0.03125 -18.609375 L -0.53125 -9.1875 C 0.738281 -8.925781 2.175781 -8.648438 3.78125 -8.359375 C 5.394531 -8.066406 6.414062 -7.90625 6.84375 -7.875 C 7.269531 -7.851562 7.601562 -7.84375 7.84375 -7.84375 C 8.082031 -7.84375 8.398438 -7.894531 8.796875 -8 C 9.203125 -8.101562 9.597656 -8.265625 9.984375 -8.484375 L 10.34375 -7.96875 C 9.707031 -7.476562 9.101562 -7.160156 8.53125 -7.015625 C 7.96875 -6.867188 7.410156 -6.820312 6.859375 -6.875 C 6.304688 -6.9375 5.035156 -7.148438 3.046875 -7.515625 C 1.066406 -7.890625 -0.429688 -8.1875 -1.453125 -8.40625 L -0.9375 -17.890625 Z M -6.171875 -13.765625 L 2.890625 -2.28125 L 2.125 -1.671875 L -6.9375 -13.15625 Z M -6.171875 -13.765625 "/></g></g></g><g fill="#000000" fill-opacity="1"><g transform="translate(262.802962, 254.330733)"><g><path d="M 1.734375 -2.0625 L -9.453125 -11.484375 L -5.078125 -16.671875 L -4.421875 -16.125 L -8.15625 -11.6875 L -4.046875 -8.21875 L -0.65625 -12.234375 L 0 -11.6875 L -3.390625 -7.671875 L 1.71875 -3.359375 L 5.609375 -7.984375 L 6.265625 -7.4375 Z M 1.734375 -2.0625 "/></g></g></g><g fill="#000000" fill-opacity="1"><g transform="translate(275.082028, 238.511506)"><g><path d="M 1.28125 -2.375 L -11.546875 -9.28125 C -11.015625 -10.457031 -10.539062 -11.429688 -10.125 -12.203125 C -9.46875 -13.429688 -8.609375 -14.269531 -7.546875 -14.71875 C -6.492188 -15.175781 -5.390625 -15.09375 -4.234375 -14.46875 C -3.453125 -14.050781 -2.847656 -13.429688 -2.421875 -12.609375 C -1.992188 -11.796875 -1.738281 -11 -1.65625 -10.21875 C -0.789062 -10.332031 0.234375 -10.488281 1.421875 -10.6875 C 2.617188 -10.882812 3.378906 -11.023438 3.703125 -11.109375 C 4.878906 -11.410156 5.773438 -12 6.390625 -12.875 L 6.9375 -12.546875 C 6.53125 -11.828125 6.097656 -11.296875 5.640625 -10.953125 C 5.179688 -10.609375 4.625 -10.34375 3.96875 -10.15625 C 3.320312 -9.976562 1.425781 -9.675781 -1.71875 -9.25 C -2.351562 -8.0625 -2.960938 -7.015625 -3.546875 -6.109375 L 1.75 -3.25 Z M -2.71875 -9.09375 C -2.4375 -9.625 -2.484375 -10.375 -2.859375 -11.34375 C -3.234375 -12.320312 -3.878906 -13.054688 -4.796875 -13.546875 C -5.710938 -14.046875 -6.570312 -14.113281 -7.375 -13.75 C -8.1875 -13.394531 -8.863281 -12.707031 -9.40625 -11.6875 C -9.695312 -11.144531 -10.015625 -10.503906 -10.359375 -9.765625 L -4.25 -6.484375 C -3.675781 -7.390625 -3.164062 -8.257812 -2.71875 -9.09375 Z M -2.71875 -9.09375 "/></g></g></g><g fill="#000000" fill-opacity="1"><g transform="translate(284.874767, 218.163261)"><g><path d="M 1.875 -6.546875 L 1.609375 -5.609375 L -3.421875 -7.046875 L -13.96875 -4.34375 L -13.640625 -5.484375 L -5.34375 -7.53125 C -4.863281 -7.65625 -4.445312 -7.742188 -4.09375 -7.796875 C -4.238281 -7.910156 -4.535156 -8.195312 -4.984375 -8.65625 L -10.984375 -14.796875 L -10.671875 -15.890625 L -3.109375 -7.96875 Z M 1.875 -6.546875 "/></g></g></g><g fill="#000000" fill-opacity="1"><g transform="translate(289.783801, 197.139868)"><g/></g></g></svg>